<?xml version="1.0" encoding="UTF-8"?>
<svg xmlns="http://www.w3.org/2000/svg" version="1.1" viewBox="0 0 1200 900">
  <!-- Generator: Adobe Illustrator 29.3.1, SVG Export Plug-In . SVG Version: 2.1.0 Build 151)  -->
  <defs>
    <style>
      .st0 {
        fill: #ff2e2e;
      }

      .st1, .st2 {
        fill: #49363e;
      }

      .st3 {
        fill: #728425;
      }

      .st4 {
        fill: #423241;
      }

      .st5 {
        fill: #d83a0f;
      }

      .st6 {
        fill: #bee41b;
      }

      .st7 {
        fill: #889f33;
      }

      .st8 {
        fill: #553d57;
      }

      .st9 {
        fill: #ff5821;
      }

      .st10 {
        fill: #fff;
      }

      .st11, .st12 {
        fill: #16b1b5;
      }

      .st13 {
        fill: #69698e;
      }

      .st14 {
        fill: #212030;
      }

      .st15 {
        fill: #e07f4f;
      }

      .st16 {
        fill: #c9ccbc;
      }

      .st17 {
        fill: #f2f0eb;
      }

      .st18 {
        fill: #603043;
      }

      .st19 {
        fill: #fc8f35;
        opacity: .5;
      }

      .st19, .st2 {
        mix-blend-mode: color-dodge;
      }

      .st20 {
        fill: #1d1d28;
      }

      .st21 {
        fill: #ff1717;
      }

      .st22 {
        fill: #999995;
      }

      .st23 {
        fill: #2d2d3f;
      }

      .st24 {
        fill: #a0a0a0;
      }

      .st25 {
        fill: #121c26;
      }

      .st26 {
        isolation: isolate;
      }

      .st27 {
        fill: #f55;
      }

      .st28 {
        fill: #663445;
        opacity: .2;
      }

      .st28, .st29, .st12, .st30 {
        mix-blend-mode: multiply;
      }

      .st31 {
        fill: #636363;
      }

      .st32 {
        fill: #3c3c56;
      }

      .st33 {
        fill: #cacea5;
      }

      .st34 {
        fill: #ff5593;
      }

      .st29 {
        fill: #212e35;
      }

      .st29, .st2 {
        opacity: .7;
      }

      .st35 {
        fill: #544753;
      }

      .st36 {
        fill: #4e5354;
      }

      .st37 {
        fill: #757573;
      }

      .st38 {
        fill: #e0e8bf;
      }

      .st39 {
        fill: #d7e0e0;
      }

      .st40 {
        fill: #60485e;
      }

      .st41 {
        fill: #92a32b;
      }

      .st42 {
        fill: #aa3c6e;
      }

      .st43 {
        fill: #579334;
      }

      .st44 {
        fill: #49211c;
      }

      .st45 {
        fill: #f2edee;
      }

      .st46 {
        fill: #ffa471;
      }

      .st12, .st30 {
        opacity: .6;
      }

      .st47 {
        fill: #9c9e8f;
      }

      .st48 {
        fill: #ccc;
      }

      .st49 {
        fill: #302530;
      }

      .st50 {
        fill: #353535;
      }

      .st51 {
        fill: #717199;
      }

      .st52 {
        fill: #d3b81a;
      }

      .st53 {
        fill: #46f2f2;
      }

      .st54 {
        fill: #8a8a8e;
      }

      .st55 {
        fill: #00788c;
      }

      .st56 {
        fill: #44283e;
      }

      .st57 {
        fill: #3d3d3d;
      }

      .st58 {
        fill: #00b8d6;
      }

      .st59 {
        fill: #707070;
      }

      .st60 {
        fill: #171721;
      }

      .st61 {
        fill: #fde427;
      }
    </style>
  </defs>
  <g class="st26">
    <g id="Layer_1">
      <g>
        <g>
          <path class="st36" d="M1116.62,716.44c-6.7,43.95-24.87,85.95-49.72,124.05-4.55,6.99-9.33,13.84-14.31,20.55H157.11c-4.5-6.61-8.86-13.49-13.05-20.55-25.18-42.52-44.12-92.11-51.19-134.44-11.79-70.59,4.21-134.14,52.35-189.39,26.79-30.74,59.92-46.11,96.25-63.01-57.34-167.89,118.88-316.07,274.24-363.96,213.68-65.86,558.31-19.1,569.59,242.46,2.85,66-10.06,127.16-55.6,178.82.91-.23,1.68-1.7,2.38-2.3,71.59,38.6,95.69,134.69,84.55,207.76Z"/>
          <rect class="st36" x="72.89" y="840.49" width="1054.21" height="20.55"/>
        </g>
        <g>
          <g>
            <g>
              <g>
                <path class="st41" d="M374.18,406.63l-38.65,6.15c6.44,13.83,4.16,29.09.99,42.89,13.42.44,27.07,5.93,40.15,2.64,6.45-15.9,3.27-35.64-2.48-51.68Z"/>
                <path class="st6" d="M375.94,402.24l-38.65,6.15c6.43,13.83,4.16,29.09.99,42.89,13.42.44,27.07,5.93,40.15,2.64,6.45-15.9,3.27-35.64-2.48-51.68Z"/>
              </g>
              <path class="st41" d="M347.28,419.76c7.42-2.04,14.95-3.03,22.64-3.05.94,0,.94-1.47,0-1.46-7.82.02-15.49,1.03-23.03,3.1-.91.25-.52,1.66.39,1.41h0Z"/>
              <path class="st41" d="M349.04,425.47c9.18-2.59,18.68-3.55,28.11-4.83.93-.13.53-1.54-.39-1.41-9.43,1.28-18.92,2.24-28.11,4.83-.91.26-.52,1.67.39,1.41h0Z"/>
              <path class="st41" d="M347.52,431.21c8.82-.53,17.1-3.9,25.67-5.74.92-.2.53-1.61-.39-1.41-8.43,1.81-16.6,5.16-25.28,5.68-.94.06-.94,1.52,0,1.46h0Z"/>
              <path class="st41" d="M351.67,435.57c9.06-2.26,18.15-4.42,27.23-6.59.92-.22.53-1.63-.39-1.41-9.08,2.16-18.17,4.33-27.23,6.59-.92.23-.53,1.64.39,1.41h0Z"/>
            </g>
            <g>
              <g>
                <path class="st41" d="M799.45,159.98l35.05,11.69c-8.13,11.89-8.36,26.45-7.55,39.8-12.57-1.66-26.13,1.34-37.8-3.74-3.56-15.81,2.46-33.69,10.29-47.75Z"/>
                <path class="st61" d="M798.49,155.62l35.05,11.69c-8.13,11.89-8.36,26.45-7.55,39.8-12.57-1.66-26.13,1.34-37.8-3.74-3.55-15.81,2.46-33.69,10.29-47.75Z"/>
              </g>
              <path class="st41" d="M822.48,176.37c-6.59-3.04-13.46-5.13-20.62-6.33-.88-.15-.65-1.51.23-1.36,7.28,1.23,14.27,3.35,20.97,6.44.81.37.23,1.63-.58,1.26h0Z"/>
              <path class="st41" d="M819.96,181.42c-8.15-3.83-16.85-6.19-25.43-8.84-.85-.26-.26-1.51.58-1.25,8.58,2.65,17.28,5.01,25.43,8.84.81.38.23,1.63-.58,1.25h0Z"/>
              <path class="st41" d="M820.49,186.99c-8.13-1.85-15.33-6.27-23.02-9.3-.83-.33-.25-1.58.58-1.25,7.57,2.99,14.67,7.37,22.67,9.2.87.2.64,1.56-.23,1.36h0Z"/>
              <path class="st41" d="M815.95,190.42c-8.09-3.51-16.22-6.92-24.34-10.34-.82-.35-.24-1.6.58-1.25,8.13,3.42,16.25,6.83,24.34,10.34.82.35.24,1.61-.58,1.25h0Z"/>
            </g>
            <g>
              <g>
                <path class="st11" d="M346.12,231.94l-38.65,6.15c6.44,13.83,4.16,29.09.99,42.89,13.42.44,27.07,5.93,40.15,2.64,6.45-15.9,3.27-35.64-2.48-51.68Z"/>
                <path class="st53" d="M347.88,227.55l-38.65,6.15c6.43,13.83,4.16,29.09.99,42.89,13.42.44,27.07,5.93,40.15,2.64-.34-14.99.83-34.31-2.48-51.68Z"/>
              </g>
              <path class="st11" d="M321.35,247.42c5.71-2.04,11.51-3.03,17.43-3.05.73,0,.73-1.47,0-1.46-6.01.02-11.93,1.03-17.73,3.1-.7.25-.4,1.66.3,1.41h0Z"/>
              <path class="st11" d="M322.71,253.13c7.07-2.59,14.38-3.55,21.63-4.83.72-.13.41-1.54-.3-1.41-7.26,1.28-14.57,2.24-21.63,4.83-.7.26-.4,1.67.3,1.41h0Z"/>
              <path class="st11" d="M321.54,258.87c6.78-.53,13.16-3.9,19.76-5.74.71-.2.41-1.61-.3-1.41-6.49,1.81-12.78,5.16-19.46,5.68-.72.06-.73,1.52,0,1.46h0Z"/>
              <path class="st11" d="M324.73,263.23c6.97-2.26,13.97-4.42,20.96-6.59.71-.22.41-1.63-.3-1.41-6.99,2.16-13.98,4.33-20.96,6.59-.7.23-.41,1.64.3,1.41h0Z"/>
            </g>
            <g>
              <g>
                <path class="st41" d="M433.28,232.71l-38.65,6.15c6.44,13.83,4.16,29.09.99,42.89,13.42.44,27.07,5.93,40.15,2.64,6.45-15.9,3.27-35.64-2.48-51.68Z"/>
                <path class="st6" d="M435.04,228.32l-38.65,6.15c6.43,13.83,4.16,29.09.99,42.89,13.42.44,27.07,5.93,40.15,2.64,6.45-15.9,3.27-35.63-2.48-51.68Z"/>
              </g>
              <path class="st41" d="M406.38,245.85c7.42-2.04,14.95-3.03,22.64-3.05.94,0,.94-1.47,0-1.46-7.81.02-15.49,1.03-23.03,3.1-.91.25-.52,1.66.39,1.41h0Z"/>
              <path class="st41" d="M408.14,251.56c9.18-2.59,18.68-3.55,28.11-4.83.93-.13.53-1.54-.39-1.41-9.43,1.28-18.92,2.24-28.11,4.83-.91.26-.52,1.67.39,1.41h0Z"/>
              <path class="st41" d="M406.63,257.29c8.82-.53,17.1-3.9,25.67-5.74.92-.2.53-1.61-.39-1.41-8.43,1.81-16.6,5.16-25.28,5.68-.94.06-.94,1.52,0,1.46h0Z"/>
              <path class="st41" d="M410.77,261.66c9.06-2.26,18.14-4.42,27.23-6.59.92-.22.53-1.63-.39-1.41-9.08,2.16-18.17,4.32-27.23,6.59-.92.23-.53,1.64.39,1.41h0Z"/>
            </g>
            <g>
              <g>
                <path class="st52" d="M299.97,366.74l-33.38,1.76c4.39,14.03-1.1,30.37,4.55,44.67,9.25-1.13,21.46-.41,30.46-3.53.69-12.94,2.58-30.9-1.62-42.89Z"/>
                <path class="st61" d="M302.6,363.23l-33.38,1.76c4.39,14.03-1.1,30.37,4.55,44.67,9.25-1.13,21.46-.41,30.46-3.53.69-12.94,2.58-30.9-1.62-42.89Z"/>
              </g>
              <path class="st52" d="M276.02,378.91c1.95.83,4.74-.03,6.71-.39,3.01-.56,5.99-1.34,9.03-1.7.93-.11.94-1.57,0-1.46-2.68.32-5.33.95-7.98,1.48-1.37.27-2.74.53-4.12.73-.8.11-2.13.43-2.91.09-.86-.36-1.6.9-.74,1.26h0Z"/>
              <path class="st52" d="M274.19,384.28c8.27-.95,16.34-3.07,24.35-5.3.91-.25.52-1.66-.39-1.41-7.88,2.18-15.82,4.31-23.96,5.24-.93.11-.94,1.57,0,1.46h0Z"/>
              <path class="st52" d="M276.83,388.24c4.54-.61,8.91-2.09,13.37-3.1.92-.21.53-1.62-.39-1.41-4.32.98-8.58,2.46-12.98,3.05-.92.12-.93,1.59,0,1.46h0Z"/>
              <path class="st52" d="M277.95,390.51c.57.91,1.93.8,2.86.74,1.93-.13,3.85-.57,5.73-1,4.04-.92,8.07-2.05,12-3.36.89-.3.51-1.71-.39-1.41-3.31,1.1-6.67,2.04-10.05,2.89-1.92.48-3.85.92-5.8,1.23-.44.07-2.87.5-3.08.17-.5-.8-1.77-.06-1.26.74h0Z"/>
              <path class="st52" d="M279.27,391.96c-.45.71-.89.78-.98,1.69-.04.4.36.73.73.73,4.88-.03,9.7-.88,14.25-2.66.87-.34.49-1.76-.39-1.41-4.44,1.74-9.1,2.58-13.86,2.61.24.24.49.49.73.73.02-.2.65-.75.78-.95.51-.8-.76-1.53-1.26-.74h0Z"/>
              <path class="st52" d="M283.92,396.04c2.43,1.63,5.96,1,8.71.98.94,0,.94-1.47,0-1.46-2.46.02-5.81.67-7.98-.78-.79-.53-1.52.74-.74,1.26h0Z"/>
            </g>
            <g>
              <g>
                <path class="st52" d="M945.12,297.19l-33.38,1.76c4.39,14.03-1.1,30.37,4.55,44.67,9.25-1.13,21.46-.41,30.46-3.53.69-12.94,2.58-30.9-1.62-42.89Z"/>
                <path class="st61" d="M947.76,293.67l-33.38,1.76c4.39,14.03-1.1,30.37,4.55,44.67,9.25-1.13,21.46-.41,30.46-3.53.69-12.94,2.58-30.9-1.62-42.89Z"/>
              </g>
              <path class="st52" d="M921.18,309.36c1.95.83,4.74-.03,6.71-.39,3.01-.56,5.99-1.34,9.03-1.7.93-.11.94-1.57,0-1.46-2.68.32-5.33.95-7.98,1.48-1.37.27-2.74.53-4.12.72-.8.11-2.12.43-2.91.09-.86-.37-1.6.9-.74,1.26h0Z"/>
              <path class="st52" d="M919.35,314.73c8.27-.95,16.34-3.07,24.35-5.3.91-.25.52-1.66-.39-1.41-7.88,2.19-15.82,4.31-23.96,5.24-.93.11-.94,1.57,0,1.46h0Z"/>
              <path class="st52" d="M921.98,318.68c4.54-.61,8.91-2.09,13.37-3.1.92-.21.53-1.62-.39-1.41-4.32.98-8.58,2.46-12.98,3.05-.92.12-.93,1.59,0,1.46h0Z"/>
              <path class="st52" d="M923.11,320.95c.57.91,1.93.8,2.86.74,1.93-.13,3.85-.57,5.73-1,4.04-.92,8.07-2.05,12-3.36.89-.3.51-1.71-.39-1.41-3.31,1.1-6.67,2.04-10.05,2.89-1.92.48-3.85.92-5.8,1.23-.44.07-2.87.5-3.08.17-.5-.8-1.77-.06-1.26.74h0Z"/>
              <path class="st52" d="M924.43,322.41c-.45.71-.89.78-.98,1.69-.04.4.36.73.73.73,4.88-.03,9.7-.88,14.25-2.66.87-.34.49-1.76-.39-1.41-4.44,1.74-9.1,2.58-13.86,2.61.24.24.49.49.73.73.02-.2.65-.75.78-.95.51-.8-.76-1.53-1.26-.74h0Z"/>
              <path class="st52" d="M929.08,326.49c2.43,1.63,5.96,1,8.71.98.94,0,.94-1.47,0-1.46-2.46.02-5.81.67-7.98-.78-.79-.53-1.52.74-.74,1.26h0Z"/>
            </g>
            <g>
              <g>
                <path class="st52" d="M595.87,315.18l-33.38,1.76c4.39,14.03-1.1,30.37,4.55,44.67,9.25-1.13,21.46-.41,30.46-3.53.69-12.94,2.58-30.9-1.62-42.89Z"/>
                <path class="st61" d="M598.51,311.67l-33.38,1.76c4.39,14.03-1.1,30.37,4.55,44.67,9.25-1.13,21.46-.41,30.46-3.53.69-12.94,2.58-30.9-1.62-42.89Z"/>
              </g>
              <path class="st52" d="M571.93,327.35c1.95.83,4.74-.03,6.71-.39,3.01-.56,5.99-1.34,9.03-1.7.93-.11.94-1.57,0-1.46-2.68.32-5.33.95-7.98,1.48-1.37.27-2.74.53-4.12.73-.8.11-2.13.43-2.91.09-.86-.37-1.6.9-.74,1.26h0Z"/>
              <path class="st52" d="M570.1,332.72c8.27-.95,16.34-3.07,24.35-5.3.91-.25.52-1.66-.39-1.41-7.88,2.18-15.82,4.31-23.96,5.24-.93.11-.94,1.57,0,1.46h0Z"/>
              <path class="st52" d="M572.73,336.67c4.54-.61,8.91-2.09,13.37-3.1.92-.21.53-1.62-.39-1.41-4.32.98-8.58,2.46-12.98,3.05-.92.12-.93,1.59,0,1.46h0Z"/>
              <path class="st52" d="M573.86,338.95c.57.91,1.93.8,2.86.74,1.93-.13,3.85-.57,5.73-1,4.04-.92,8.07-2.05,12-3.36.89-.3.51-1.71-.39-1.41-3.31,1.1-6.67,2.04-10.05,2.89-1.92.48-3.85.92-5.8,1.23-.44.07-2.87.5-3.08.17-.5-.8-1.77-.06-1.26.74h0Z"/>
              <path class="st52" d="M575.18,340.4c-.45.71-.89.78-.98,1.69-.04.4.36.73.73.73,4.88-.03,9.7-.88,14.25-2.66.87-.34.49-1.76-.39-1.41-4.44,1.74-9.1,2.58-13.86,2.61.24.24.49.49.73.73.02-.2.65-.75.78-.95.51-.8-.76-1.53-1.26-.74h0Z"/>
              <path class="st52" d="M579.83,344.48c2.43,1.63,5.96,1,8.71.98.94,0,.94-1.47,0-1.46-2.46.02-5.81.67-7.98-.78-.79-.53-1.52.74-.74,1.26h0Z"/>
            </g>
            <g>
              <g>
                <path class="st42" d="M380,372.81c-4.44-12.03-8.4-24.45-11.48-37.38-7.33,9.32-34.52,10.61-34.52,10.61,5.89,12.84,11.49,29.34,11.5,43.14,11.63-4.11,23.62-10.2,34.5-16.37Z"/>
                <path class="st34" d="M380.8,368.97c-4.44-12.03-8.4-24.45-11.48-37.38-7.33,9.32-34.52,10.61-34.52,10.61,5.89,12.84,11.49,29.34,11.5,43.14,11.63-4.11,23.62-10.2,34.5-16.37Z"/>
              </g>
              <path class="st42" d="M348.86,351.53c2.71.99,5.88-.18,8.4-1.21,3.08-1.25,5.98-2.9,8.81-4.62.8-.49.07-1.76-.74-1.27-2.44,1.49-4.93,2.89-7.54,4.08-2.45,1.11-5.84,2.6-8.55,1.61-.89-.33-1.27,1.09-.39,1.41h0Z"/>
              <path class="st42" d="M350.99,357.4c3.17-1.39,6.59-2.14,9.79-3.46.86-.35.5-1.77-.37-1.42-3.32,1.37-6.85,2.17-10.15,3.61-.86.38-.12,1.64.74,1.27h0Z"/>
              <path class="st42" d="M350.45,359.29c3.78,1.59,8.15-.7,11.65-2.06.87-.34.51-1.76-.37-1.42-3.23,1.26-7.39,3.53-10.88,2.07-.87-.37-1.25,1.05-.39,1.41h0Z"/>
              <path class="st42" d="M348.87,366.59c5.84-3.41,12.46-5.09,18.68-7.63.86-.35.5-1.77-.37-1.42-6.34,2.58-13.09,4.3-19.04,7.78-.81.48-.08,1.74.74,1.27h0Z"/>
              <path class="st42" d="M352.9,370.56c4.06-1.57,8.13-3.12,12.05-5.02.85-.41.11-1.68-.74-1.27-3.8,1.84-7.75,3.35-11.69,4.87-.87.34-.51,1.76.37,1.42h0Z"/>
              <path class="st42" d="M354.4,373.12c1.45.62,3.47-.58,4.76-1.16,2.25-1.01,4.44-2.2,6.57-3.45.81-.48.08-1.75-.74-1.27-1.72,1.01-3.48,1.96-5.27,2.84-.95.47-1.91.91-2.9,1.29-.34.13-1.42.6-1.69.49-.86-.37-1.6.89-.74,1.26h0Z"/>
            </g>
            <g>
              <g>
                <path class="st12" d="M373.68,257.21c-4.44-12.03-8.4-24.45-11.48-37.38-7.33,9.32-34.52,10.61-34.52,10.61,5.89,12.84,11.49,29.34,11.5,43.14,11.63-4.11,23.62-10.2,34.5-16.37Z"/>
                <path class="st34" d="M374.48,253.37c-4.44-12.03-8.4-24.45-11.48-37.38-25.1,7.57-35.32,14.45-35.32,14.45,5.89,12.84,12.3,25.49,12.3,39.3,11.63-4.11,23.62-10.2,34.5-16.37Z"/>
              </g>
              <path class="st42" d="M342.54,235.93c2.71.99,5.88-.18,8.4-1.21,3.08-1.25,5.98-2.9,8.81-4.62.8-.49.07-1.76-.74-1.27-2.44,1.49-4.93,2.89-7.54,4.08-2.45,1.11-5.84,2.6-8.55,1.61-.89-.33-1.27,1.09-.39,1.41h0Z"/>
              <path class="st42" d="M344.67,241.8c3.17-1.39,6.59-2.14,9.79-3.46.86-.36.5-1.78-.37-1.42-3.32,1.37-6.85,2.17-10.15,3.61-.86.38-.12,1.64.74,1.27h0Z"/>
              <path class="st42" d="M344.13,243.69c3.78,1.59,8.15-.7,11.65-2.06.87-.34.51-1.76-.37-1.42-3.23,1.26-7.39,3.53-10.88,2.07-.87-.37-1.25,1.05-.39,1.41h0Z"/>
              <path class="st42" d="M342.55,250.99c5.84-3.41,12.46-5.09,18.68-7.63.86-.35.5-1.77-.37-1.42-6.34,2.58-13.1,4.3-19.04,7.78-.81.48-.08,1.74.74,1.27h0Z"/>
              <path class="st42" d="M346.58,254.95c4.06-1.57,8.13-3.12,12.05-5.02.85-.41.11-1.68-.74-1.27-3.8,1.84-7.75,3.35-11.69,4.87-.87.34-.51,1.76.37,1.42h0Z"/>
              <path class="st42" d="M348.08,257.51c1.45.62,3.47-.58,4.76-1.16,2.25-1.01,4.44-2.2,6.57-3.45.81-.48.08-1.75-.74-1.27-1.72,1.01-3.48,1.96-5.27,2.84-.95.47-1.91.91-2.9,1.29-.34.13-1.42.6-1.69.49-.86-.37-1.6.89-.74,1.27h0Z"/>
            </g>
            <g>
              <g>
                <path class="st42" d="M484.62,191.45c-1.22-12.77-1.88-25.78-1.56-39.07-9.47,7.14-36.08,1.45-36.08,1.45,2.41,13.92,3.63,31.3.11,44.65,12.29-1.01,25.44-3.83,37.53-7.03Z"/>
                <path class="st34" d="M486.38,187.94c-1.22-12.77-1.88-25.78-1.56-39.07-9.47,7.14-36.08,1.45-36.08,1.45,2.41,13.92,3.63,31.3.11,44.65,12.29-1.01,25.44-3.83,37.53-7.03Z"/>
              </g>
              <path class="st42" d="M459.94,162.93c2.36,1.65,5.74,1.32,8.43.98,3.29-.42,6.52-1.27,9.7-2.22.9-.27.52-1.68-.39-1.41-2.74.82-5.51,1.54-8.33,2.02-2.65.45-6.31,1.02-8.68-.63-.78-.54-1.51.73-.74,1.26h0Z"/>
              <path class="st42" d="M460.5,169.15c3.42-.53,6.91-.39,10.35-.85.92-.12.93-1.59,0-1.46-3.56.48-7.18.35-10.74.9-.93.14-.53,1.56.39,1.41h0Z"/>
              <path class="st42" d="M459.5,170.84c3.25,2.5,8.06,1.4,11.79.98.93-.11.94-1.57,0-1.46-3.45.39-8.05,1.53-11.05-.78-.75-.58-1.48.7-.74,1.26h0Z"/>
              <path class="st42" d="M456.11,177.5c6.51-1.8,13.35-1.74,20.01-2.61.92-.12.93-1.59,0-1.46-6.79.88-13.76.82-20.4,2.66-.91.25-.52,1.66.39,1.41h0Z"/>
              <path class="st42" d="M458.99,182.36c4.33-.48,8.65-.95,12.93-1.78.93-.18.53-1.59-.39-1.41-4.15.81-8.34,1.27-12.54,1.73-.93.1-.94,1.57,0,1.46h0Z"/>
              <path class="st42" d="M459.79,185.22c1.24.97,3.5.33,4.9.09,2.44-.4,4.86-.99,7.23-1.66.91-.26.52-1.67-.39-1.41-1.92.54-3.86,1-5.82,1.4-1.04.21-2.08.39-3.13.51-.36.04-1.53.22-1.76.04-.73-.57-1.78.45-1.04,1.04h0Z"/>
            </g>
            <g>
              <g>
                <path class="st11" d="M867.22,265.29c1.98-12.67,4.56-25.45,8.15-38.24-10.94,4.58-35.32-7.52-35.32-7.52-1.1,14.08-4.22,31.23-10.93,43.29,12.16,2.07,25.6,2.58,38.1,2.47Z"/>
                <path class="st53" d="M869.79,262.32c1.98-12.67,4.56-25.45,8.15-38.24-14.43-3.39-35.32-7.52-35.32-7.52-1.1,14.08-4.22,31.23-10.93,43.29,12.16,2.07,25.6,2.58,38.1,2.47Z"/>
              </g>
              <path class="st11" d="M850.36,231.55c1.88,2.18,5.23,2.7,7.93,3.03,3.3.41,6.64.38,9.95.25.94-.04.92-1.5-.03-1.46-2.86.12-5.72.13-8.57-.1-2.68-.22-6.37-.57-8.25-2.75-.62-.72-1.64.33-1.03,1.04h0Z"/>
              <path class="st11" d="M849.37,237.72c3.45.33,6.8,1.33,10.24,1.73.92.11,1.3-1.31.36-1.42-3.57-.42-7.05-1.43-10.63-1.78-.94-.09-.9,1.37.03,1.46h0Z"/>
              <path class="st11" d="M847.98,239.1c2.53,3.23,7.47,3.35,11.18,3.86.92.13,1.3-1.29.36-1.42-3.44-.47-8.18-.51-10.51-3.49-.58-.74-1.6.31-1.03,1.04h0Z"/>
              <path class="st11" d="M843.05,244.72c6.76-.14,13.36,1.61,20.03,2.42.92.11,1.3-1.3.36-1.42-6.8-.83-13.54-2.61-20.42-2.47-.94.02-.92,1.48.03,1.46h0Z"/>
              <path class="st11" d="M844.64,250.14c4.31.61,8.62,1.22,12.97,1.47.94.05.91-1.41-.03-1.46-4.22-.24-8.4-.84-12.58-1.43-.92-.13-1.3,1.29-.36,1.42h0Z"/>
              <path class="st11" d="M844.7,253.11c.96,1.25,3.31,1.18,4.72,1.3,2.46.21,4.95.24,7.42.18.94-.02.92-1.49-.03-1.46-1.99.05-3.99.02-5.98-.08-1.06-.05-2.11-.14-3.16-.29-.36-.05-1.54-.17-1.71-.39-.57-.74-1.84,0-1.26.75h0Z"/>
            </g>
            <g>
              <g class="st30">
                <g>
                  <path class="st11" d="M580.3,278.3s0-.05.01-.08c-.02,0-.05,0-.07.01-.3.32-.28.34.06.07Z"/>
                  <path class="st11" d="M677.63,200c1.77-21.76,2.01-43.62,2.68-65.37-3.81-.51-7.68-.84-11.58-1.05-.13-.02-.25-.04-.39-.05-.19-.02-.37-.01-.56,0-9.77-.49-19.69-.25-29.26-.1-11.48.19-23.85-.38-35.34.67l-14.85-.31c-.21-.06-.43-.1-.65-.11-.39-.03-.77,0-1.13.08l-11.04-.23c7.42,20.79,6.63,50.23,7.76,72.25,1.21,23.61,1.31,49.05-2.97,72.45,13.93-2.64,31.28,4.61,46.09,4.13,13.71-.45,28.66-2.9,41.47-5.33.39-11.25,4.67-22.59,6.24-33.81,1.98-14.23,2.36-28.89,3.53-43.21Z"/>
                </g>
              </g>
              <g>
                <g>
                  <g>
                    <path class="st10" d="M591.33,271.53s0-.05,0-.08c-.02,0-.05.01-.07.02-.28.34-.26.36.06.06Z"/>
                    <path class="st10" d="M681.98,185.58c0-21.83-1.54-43.64-2.64-65.37-13.79-.7-28.11.86-41.74,2.2-11.42,1.12-23.8,1.56-35.17,3.54l-27.63,1.67c9.08,20.12,10.69,49.52,13.6,71.38,3.13,23.44,5.29,48.78,2.92,72.45,13.67-3.77,31.55,2.05,46.27.37,13.63-1.56,28.33-5.22,40.9-8.68-.52-11.24,2.82-22.89,3.47-34.21.82-14.35,0-28.98,0-43.35Z"/>
                  </g>
                  <g>
                    <path class="st39" d="M605.57,158.84c3.78,1.07,8.02-.22,11.63-1.37,4.74-1.51,9.28-3.49,14.06-4.93,11.64-3.5,23.61-6.02,35.83-5.47,1.35.06,1.34-2.03,0-2.09-11.61-.53-23,1.7-34.12,4.88-4.78,1.37-9.34,3.08-13.99,4.79-3.81,1.4-8.76,3.33-12.85,2.17-1.3-.37-1.85,1.65-.56,2.02h0Z"/>
                    <path class="st39" d="M605.72,169.8c18.74-10.81,40.56-17.4,62.03-19.78,1.33-.15,1.34-2.24,0-2.09-21.84,2.42-44,9.05-63.08,20.06-1.17.67-.11,2.48,1.06,1.81h0Z"/>
                    <path class="st39" d="M600.45,175.7c17.83-8.02,37.84-8.26,56.38-13.91,1.29-.39.74-2.41-.56-2.02-18.73,5.71-38.86,6.01-56.88,14.12-1.23.55-.16,2.36,1.06,1.81h0Z"/>
                    <path class="st39" d="M609.42,178.02c16.5-2.22,32.99-4.45,49.38-7.38,1.33-.24.76-2.25-.56-2.02-16.39,2.93-32.89,5.16-49.38,7.38-1.33.18-.76,2.2.56,2.02h0Z"/>
                    <path class="st39" d="M608.21,188.35c2.67.69,5.54.26,8.22-.19,4.21-.7,8.34-1.88,12.43-3.08,8.18-2.39,16.29-5.45,24.68-7.06,1.32-.25.76-2.27-.56-2.02-7.84,1.5-15.43,4.3-23.06,6.58-4.05,1.21-8.12,2.36-12.26,3.22-2.81.58-6.06,1.26-8.9.53-1.31-.34-1.86,1.68-.56,2.02h0Z"/>
                    <path class="st39" d="M612.44,196.5c10.9.78,22.17-2.12,32.54-5.2,1.29-.38.74-2.4-.56-2.02-10.21,3.03-21.25,5.89-31.99,5.13-1.35-.1-1.34,2,0,2.09h0Z"/>
                    <path class="st39" d="M618.28,204.31c3.65,3.79,11.27,1.64,15.6.55,5.9-1.48,11.81-3.6,17.28-6.29,1.21-.6.15-2.4-1.06-1.81-4.87,2.4-10.09,4.23-15.31,5.69-2.94.82-5.95,1.49-9,1.71-1.95.14-4.56.19-6.03-1.33-.94-.97-2.42.51-1.48,1.48h0Z"/>
                    <path class="st39" d="M629.94,215.65c5.15,1.55,10.65.92,15.88.19,6.2-.86,12.36-2.31,18.64-2.37,1.35-.01,1.35-2.1,0-2.09-5.58.05-11.09,1.17-16.58,2.05-5.64.9-11.79,1.89-17.38.2-1.3-.39-1.85,1.63-.56,2.02h0Z"/>
                    <path class="st39" d="M607.45,230.4c18.23-5.39,37.89-2.74,55.97-8.85,1.27-.43.73-2.45-.56-2.02-18.08,6.11-37.73,3.47-55.97,8.85-1.29.38-.74,2.4.56,2.02h0Z"/>
                    <path class="st39" d="M615.73,243.72c14.54-1.05,27.53-9.42,42.14-10.33,1.34-.08,1.35-2.18,0-2.09-7.25.45-14.24,2.65-21.1,4.88-6.83,2.22-13.81,4.93-21.04,5.45-1.34.1-1.35,2.19,0,2.09h0Z"/>
                    <path class="st39" d="M621.57,245.62c-.88.74-1.86.73-2.24,1.94-.19.59.34,1.41,1.01,1.33,10.61-1.41,21.45-.17,31.88-2.99,1.3-.35.75-2.37-.56-2.02-10.25,2.76-20.9,1.52-31.33,2.91.34.44.67.88,1.01,1.32.05-.15,1.46-.8,1.71-1.01,1.04-.87-.45-2.34-1.48-1.48h0Z"/>
                    <path class="st39" d="M637.18,251.8c4.29,1.68,9.4-.02,13.73-.74,1.33-.22.76-2.24-.56-2.02-3.98.66-8.68,2.28-12.61.74-1.26-.49-1.8,1.53-.56,2.02h0Z"/>
                  </g>
                </g>
                <path class="st21" d="M590.72,130.55c0,2.08-1.69,3.77-3.77,3.77s-3.77-1.69-3.77-3.77,1.69-3.77,3.77-3.77,3.77,1.69,3.77,3.77Z"/>
                <path class="st43" d="M671.1,123.85c0,2.08-1.69,3.77-3.77,3.77s-3.77-1.69-3.77-3.77,1.69-3.77,3.77-3.77,3.77,1.69,3.77,3.77Z"/>
              </g>
            </g>
            <g>
              <g>
                <path class="st42" d="M764.3,265.55c-1.22-12.77-1.88-25.78-1.56-39.07-9.47,7.14-36.08,1.45-36.08,1.45,2.41,13.92,3.63,31.3.11,44.65,12.29-1.01,25.44-3.83,37.53-7.03Z"/>
                <path class="st34" d="M766.06,262.04c-1.22-12.77-1.88-25.78-1.56-39.07-9.47,7.14-36.08,1.45-36.08,1.45,2.41,13.92,3.63,31.3.11,44.65,12.29-1.01,25.44-3.83,37.53-7.03Z"/>
              </g>
              <path class="st42" d="M739.62,237.03c2.36,1.65,5.74,1.32,8.43.98,3.29-.42,6.52-1.27,9.7-2.22.9-.27.52-1.68-.39-1.41-2.74.82-5.51,1.54-8.33,2.02-2.65.45-6.31,1.02-8.68-.63-.78-.54-1.51.73-.74,1.26h0Z"/>
              <path class="st42" d="M740.19,243.25c3.42-.53,6.92-.39,10.35-.85.92-.12.93-1.59,0-1.46-3.56.48-7.18.35-10.74.9-.93.14-.53,1.55.39,1.41h0Z"/>
              <path class="st42" d="M739.18,244.94c3.25,2.5,8.06,1.4,11.79.98.93-.11.94-1.57,0-1.46-3.45.39-8.05,1.53-11.05-.78-.75-.58-1.48.7-.74,1.26h0Z"/>
              <path class="st42" d="M735.8,251.6c6.51-1.8,13.35-1.75,20.01-2.61.92-.12.93-1.59,0-1.46-6.79.88-13.76.82-20.4,2.66-.91.25-.52,1.66.39,1.41h0Z"/>
              <path class="st42" d="M738.68,256.45c4.33-.48,8.65-.95,12.93-1.78.93-.18.53-1.59-.39-1.41-4.15.81-8.34,1.27-12.54,1.73-.93.1-.94,1.57,0,1.46h0Z"/>
              <path class="st42" d="M739.47,259.31c1.24.97,3.5.33,4.9.09,2.44-.4,4.86-.99,7.23-1.66.91-.26.52-1.67-.39-1.41-1.92.54-3.86,1-5.82,1.4-1.04.21-2.08.39-3.13.51-.36.04-1.53.22-1.76.04-.73-.57-1.78.45-1.04,1.04h0Z"/>
            </g>
            <g>
              <g>
                <path class="st42" d="M288.82,346.35c-1.22-12.77-1.88-25.78-1.56-39.07-9.47,7.14-36.08,1.45-36.08,1.45,2.41,13.92,3.63,31.3.11,44.65,12.29-1.01,25.44-3.83,37.53-7.03Z"/>
                <path class="st34" d="M290.58,342.83c-1.22-12.77-1.88-25.78-1.56-39.07-9.47,7.14-36.08,1.45-36.08,1.45,2.41,13.92,3.63,31.3.11,44.65,12.29-1.01,25.44-3.83,37.53-7.03Z"/>
              </g>
              <path class="st42" d="M264.14,317.82c2.36,1.65,5.74,1.32,8.43.98,3.29-.42,6.52-1.27,9.7-2.22.9-.27.52-1.68-.39-1.41-2.74.82-5.51,1.54-8.33,2.02-2.65.45-6.31,1.02-8.68-.63-.78-.54-1.51.73-.74,1.26h0Z"/>
              <path class="st42" d="M264.71,324.05c3.42-.53,6.91-.39,10.35-.85.92-.12.93-1.59,0-1.46-3.56.48-7.18.35-10.74.9-.93.14-.53,1.55.39,1.41h0Z"/>
              <path class="st42" d="M263.7,325.73c3.25,2.5,8.06,1.4,11.79.98.93-.11.94-1.57,0-1.46-3.45.39-8.05,1.53-11.05-.78-.75-.58-1.48.7-.74,1.26h0Z"/>
              <path class="st42" d="M260.31,332.39c6.51-1.81,13.35-1.74,20.01-2.61.92-.12.93-1.59,0-1.46-6.79.88-13.76.82-20.4,2.66-.91.25-.52,1.66.39,1.41h0Z"/>
              <path class="st42" d="M263.19,337.25c4.33-.48,8.65-.95,12.93-1.78.93-.18.53-1.59-.39-1.41-4.15.81-8.34,1.27-12.54,1.73-.93.1-.94,1.57,0,1.46h0Z"/>
              <path class="st42" d="M263.99,340.11c1.24.97,3.5.33,4.9.09,2.44-.4,4.86-.99,7.23-1.66.91-.26.52-1.67-.39-1.41-1.92.54-3.86,1-5.82,1.4-1.04.21-2.08.39-3.13.51-.36.04-1.53.22-1.76.04-.73-.57-1.78.45-1.04,1.04h0Z"/>
            </g>
          </g>
          <g>
            <g>
              <g>
                <path class="st57" d="M618.05,485.45c.41,5.94-4.07,10.75-10.01,10.75h-33.69c-5.94,0-10.15-4.81-9.41-10.75l8.51-68.09c.74-5.94,4.64-10.75,8.7-10.75h23.06c4.06,0,7.69,4.81,8.1,10.75l4.72,68.09Z"/>
                <path class="st59" d="M608.88,483.57c.33,4.64-3.25,8.4-7.99,8.4h-26.91c-4.74,0-8.11-3.76-7.51-8.4l6.8-53.22c.59-4.64,3.71-8.4,6.95-8.4h18.42c3.25,0,6.14,3.76,6.47,8.4l3.77,53.22Z"/>
                <g>
                  <path class="st57" d="M588.35,487.37c-9.79,0-17.75-7.96-17.75-17.74s7.96-17.75,17.75-17.75,17.74,7.96,17.74,17.75-7.96,17.74-17.74,17.74ZM588.35,453.2c-9.06,0-16.42,7.37-16.42,16.42s7.37,16.42,16.42,16.42,16.42-7.37,16.42-16.42-7.37-16.42-16.42-16.42Z"/>
                  <path class="st57" d="M588.35,456.01c-7.51,0-13.61,6.11-13.61,13.61s6.11,13.61,13.61,13.61,13.61-6.11,13.61-13.61-6.11-13.61-13.61-13.61Z"/>
                </g>
                <g>
                  <path class="st57" d="M588.35,447.7c-5.53,0-10.03-4.5-10.03-10.03s4.5-10.03,10.03-10.03,10.03,4.5,10.03,10.03-4.5,10.03-10.03,10.03ZM588.35,428.38c-5.12,0-9.29,4.17-9.29,9.29s4.17,9.29,9.29,9.29,9.29-4.17,9.29-9.29-4.17-9.29-9.29-9.29Z"/>
                  <path class="st57" d="M588.35,429.97c-4.25,0-7.7,3.45-7.7,7.7s3.45,7.7,7.7,7.7,7.7-3.45,7.7-7.7-3.45-7.7-7.7-7.7Z"/>
                </g>
              </g>
              <g>
                <g>
                  <g>
                    <rect class="st24" x="1054.19" y="514.77" width="28.59" height="326.42"/>
                    <rect class="st29" x="1054.19" y="829.79" width="28.59" height="11.4"/>
                  </g>
                  <path class="st48" d="M1065.35,795.55c0,2.04-1.31,3.69-2.92,3.69h0c-1.61,0-2.92-1.65-2.92-3.69v-263.08c0-2.04,1.31-3.69,2.92-3.69h0c1.61,0,2.92,1.65,2.92,3.69v263.08Z"/>
                </g>
                <g>
                  <g>
                    <rect class="st24" x="850.32" y="514.77" width="28.59" height="326.42"/>
                    <rect class="st29" x="850.32" y="829.79" width="28.59" height="11.4"/>
                  </g>
                  <path class="st48" d="M861.48,795.55c0,2.04-1.31,3.69-2.92,3.69h0c-1.61,0-2.92-1.65-2.92-3.69v-263.08c0-2.04,1.31-3.69,2.92-3.69h0c1.61,0,2.92,1.65,2.92,3.69v263.08Z"/>
                </g>
                <g>
                  <g>
                    <rect class="st24" x="523.28" y="514.77" width="28.59" height="326.42"/>
                    <rect class="st29" x="523.28" y="829.79" width="28.59" height="11.4"/>
                  </g>
                  <path class="st48" d="M534.44,795.55c0,2.04-1.31,3.69-2.92,3.69h0c-1.61,0-2.92-1.65-2.92-3.69v-263.08c0-2.04,1.31-3.69,2.92-3.69h0c1.61,0,2.92,1.65,2.92,3.69v263.08Z"/>
                </g>
                <g>
                  <g>
                    <rect class="st24" x="320.24" y="514.77" width="28.59" height="326.42"/>
                    <rect class="st29" x="320.24" y="829.79" width="28.59" height="11.4"/>
                  </g>
                  <path class="st48" d="M331.41,795.55c0,2.04-1.31,3.69-2.92,3.69h0c-1.61,0-2.92-1.65-2.92-3.69v-263.08c0-2.04,1.31-3.69,2.92-3.69h0c1.61,0,2.92,1.65,2.92,3.69v263.08Z"/>
                </g>
                <g>
                  <rect class="st49" x="319.04" y="508.21" width="765.29" height="25.12"/>
                  <g>
                    <rect class="st40" x="295.6" y="497.33" width="810.5" height="16.75"/>
                    <rect class="st4" x="883.51" y="497.33" width="222.59" height="16.75"/>
                  </g>
                </g>
              </g>
              <path class="st18" d="M383.2,454.96c-.49-.06-.97-.12-1.46-.18.77.05,1.27.11,1.46.18Z"/>
              <path class="st55" d="M384.02,601.1c-17.1,2.48,5.53,10.39-9.29,15.78l75.54,11.62c38.58-2.34,149.05,4.5,166.78,0,6.34-1.61,39.24-.82,41.9-4.56-20.55-33.4-249.29-26.57-274.93-22.85Z"/>
              <g>
                <g>
                  <g>
                    <rect class="st57" x="736.49" y="420" width="35.9" height="74.93"/>
                    <rect class="st37" x="736.49" y="420" width="16.6" height="74.93"/>
                    <g>
                      <path class="st22" d="M836.37,492.25c0,2.59-2.1,4.68-4.68,4.68h-154.51c-2.59,0-4.68-2.09-4.68-4.68,0-1.29.52-2.46,1.37-3.3.84-.85,2.02-1.37,3.31-1.37h154.51c2.59,0,4.68,2.1,4.68,4.68Z"/>
                      <path class="st57" d="M836.37,492.25c0,2.59-1.47,4.68-3.28,4.68h-55.8c-1.81,0-3.28-2.09-3.28-4.68,0-1.29.37-2.46.96-3.3.59-.85,1.41-1.37,2.32-1.37h55.8c1.81,0,3.28,2.1,3.28,4.68Z"/>
                    </g>
                    <g>
                      <path class="st57" d="M887.3,289.15v141.92c0,8.18-5.49,14.98-12.75,16.42-.93.19-1.88.28-2.86.28h-249.72c-.98,0-1.93-.09-2.86-.28-7.25-1.44-12.75-8.24-12.75-16.42v-141.92c0-9.22,6.99-16.69,15.61-16.69h249.72c8.62,0,15.61,7.48,15.61,16.69Z"/>
                      <path class="st35" d="M868.7,295.06v130.1c0,8.45-6.32,15.31-14.12,15.31h-225.85c-7.8,0-14.12-6.85-14.12-15.31v-130.1c0-8.45,6.32-15.31,14.12-15.31h225.85c7.8,0,14.12,6.85,14.12,15.31Z"/>
                      <path class="st48" d="M869.45,410.42v21.09c0,8.35-5.16,15.3-11.97,16.76h-239.92c-6.81-1.47-11.97-8.41-11.97-16.76v-21.09h263.86Z"/>
                    </g>
                    <path class="st37" d="M741.18,423.97c0,3.23-3.49,5.85-7.8,5.85s-7.8-2.62-7.8-5.85,3.49-5.85,7.8-5.85,7.8,2.62,7.8,5.85Z"/>
                  </g>
                  <g>
                    <rect class="st33" x="624.65" y="287.96" width="12.92" height="1.38"/>
                    <rect class="st33" x="693.87" y="287.96" width="17.54" height="1.38"/>
                    <rect class="st33" x="715.1" y="287.96" width="57.23" height="1.38"/>
                    <polygon class="st33" points="811.56 289.34 811.56 287.96 776.02 287.96 776.02 289.34 788.94 289.34 788.94 288.42 793.1 288.42 793.1 289.34 811.56 289.34"/>
                    <rect class="st33" x="822.17" y="287.96" width="14.31" height="1.38"/>
                    <rect class="st33" x="624.65" y="294.42" width="12.92" height="1.38"/>
                    <rect class="st33" x="757.56" y="294.42" width="14.77" height="1.38"/>
                    <rect class="st33" x="776.02" y="294.42" width="12.92" height="1.38"/>
                    <rect class="st33" x="822.17" y="294.42" width="14.31" height="1.38"/>
                    <rect class="st33" x="793.1" y="294.42" width="18.46" height="1.38"/>
                    <rect class="st33" x="693.87" y="294.42" width="17.54" height="1.38"/>
                    <rect class="st33" x="715.1" y="294.42" width="35.54" height="1.38"/>
                    <rect class="st33" x="624.65" y="300.88" width="12.92" height="1.38"/>
                    <rect class="st33" x="702.64" y="300.88" width="48" height="1.38"/>
                    <rect class="st33" x="757.56" y="300.88" width="2.77" height="1.38"/>
                    <rect class="st33" x="770.95" y="300.88" width="18" height="1.38"/>
                    <rect class="st33" x="793.1" y="300.88" width="18.46" height="1.38"/>
                    <rect class="st33" x="822.17" y="300.88" width="14.31" height="1.38"/>
                    <rect class="st33" x="624.65" y="307.34" width="12.92" height="1.38"/>
                    <rect class="st33" x="702.64" y="307.34" width="48" height="1.38"/>
                    <rect class="st33" x="757.56" y="307.34" width="2.77" height="1.38"/>
                    <rect class="st33" x="770.95" y="307.34" width="40.61" height="1.38"/>
                    <rect class="st33" x="829.1" y="307.34" width="7.38" height="1.38"/>
                    <rect class="st33" x="822.17" y="307.34" width="5.08" height="1.38"/>
                    <rect class="st33" x="624.65" y="313.8" width="37.38" height="1.38"/>
                    <rect class="st33" x="702.64" y="313.8" width="11.54" height="1.38"/>
                    <rect class="st33" x="770.95" y="313.8" width="56.3" height="1.38"/>
                    <rect class="st33" x="829.1" y="313.8" width="7.38" height="1.38"/>
                    <rect class="st33" x="729.87" y="313.8" width="14.31" height="1.38"/>
                    <polygon class="st33" points="692.03 321.19 662.03 321.19 662.03 320.27 624.65 320.27 624.65 321.65 692.03 321.65 692.03 321.19"/>
                    <rect class="st33" x="729.87" y="320.27" width="14.31" height="1.38"/>
                    <polygon class="st33" points="770.95 320.27 770.95 321.19 766.33 321.19 766.33 321.65 796.33 321.65 796.33 320.27 770.95 320.27"/>
                    <rect class="st33" x="797.71" y="320.27" width="29.54" height="1.38"/>
                    <rect class="st33" x="829.1" y="320.27" width="7.38" height="1.38"/>
                    <rect class="st33" x="702.64" y="320.27" width="11.54" height="1.38"/>
                    <polygon class="st38" points="624.65 326.73 624.65 328.11 626.49 328.11 626.49 327.65 630.64 327.65 630.64 328.11 714.18 328.11 714.18 326.73 624.65 326.73"/>
                    <rect class="st38" x="729.87" y="326.73" width="14.31" height="1.38"/>
                    <rect class="st38" x="766.33" y="326.73" width="30" height="1.38"/>
                    <rect class="st38" x="797.71" y="326.73" width="29.54" height="1.38"/>
                    <rect class="st38" x="829.1" y="326.73" width="7.38" height="1.38"/>
                    <rect class="st38" x="624.65" y="333.19" width="1.85" height="1.38"/>
                    <rect class="st38" x="630.64" y="333.19" width="83.53" height="1.38"/>
                    <rect class="st38" x="729.87" y="333.19" width="14.31" height="1.38"/>
                    <rect class="st38" x="766.33" y="333.19" width="30" height="1.38"/>
                    <rect class="st38" x="797.71" y="333.19" width="29.54" height="1.38"/>
                    <rect class="st38" x="829.1" y="333.19" width="7.38" height="1.38"/>
                    <rect class="st38" x="630.64" y="339.65" width="83.53" height="1.38"/>
                    <rect class="st38" x="729.87" y="339.65" width="12" height="1.38"/>
                    <rect class="st38" x="766.33" y="339.65" width="24.92" height="1.38"/>
                    <rect class="st38" x="814.79" y="339.65" width="21.69" height="1.38"/>
                    <rect class="st38" x="801.87" y="339.65" width="4.61" height="1.38"/>
                    <rect class="st38" x="766.33" y="346.11" width="24.92" height="1.38"/>
                    <rect class="st38" x="801.87" y="346.11" width="4.61" height="1.38"/>
                    <rect class="st38" x="814.79" y="346.11" width="5.54" height="1.38"/>
                    <rect class="st38" x="822.63" y="346.11" width="13.85" height="1.38"/>
                    <rect class="st38" x="729.87" y="346.11" width="12" height="1.38"/>
                    <rect class="st38" x="630.64" y="346.11" width="13.85" height="1.38"/>
                    <rect class="st38" x="644.95" y="346.11" width="69.23" height="1.38"/>
                    <rect class="st38" x="729.87" y="352.57" width="12" height="1.38"/>
                    <rect class="st38" x="766.33" y="352.57" width="24.92" height="1.38"/>
                    <rect class="st38" x="801.87" y="352.57" width="4.61" height="1.38"/>
                    <rect class="st38" x="814.79" y="352.57" width="5.54" height="1.38"/>
                    <rect class="st38" x="822.63" y="352.57" width="13.85" height="1.38"/>
                    <rect class="st38" x="644.95" y="352.57" width="69.23" height="1.38"/>
                    <rect class="st38" x="630.64" y="352.57" width="13.85" height="1.38"/>
                    <polygon class="st38" points="630.64 359.03 630.64 359.96 626.49 359.96 626.49 359.03 626.03 359.03 626.03 360.42 644.49 360.42 644.49 359.03 630.64 359.03"/>
                    <rect class="st38" x="644.95" y="359.03" width="96.92" height="1.38"/>
                    <rect class="st38" x="766.33" y="359.03" width="13.85" height="1.38"/>
                    <rect class="st38" x="781.56" y="359.03" width="38.77" height="1.38"/>
                    <rect class="st38" x="822.63" y="359.03" width="13.85" height="1.38"/>
                    <rect class="st38" x="674.03" y="365.49" width="67.84" height="1.38"/>
                    <rect class="st38" x="626.03" y="365.49" width="18.46" height="1.38"/>
                    <rect class="st38" x="644.95" y="365.49" width="23.08" height="1.38"/>
                    <rect class="st38" x="781.56" y="365.49" width="38.77" height="1.38"/>
                    <rect class="st38" x="753.87" y="365.49" width="26.31" height="1.38"/>
                    <rect class="st38" x="822.63" y="365.49" width="13.85" height="1.38"/>
                    <rect class="st38" x="626.03" y="371.96" width="8.77" height="1.38"/>
                    <rect class="st38" x="637.11" y="371.96" width="7.38" height="1.38"/>
                    <rect class="st38" x="644.95" y="371.96" width="23.08" height="1.38"/>
                    <rect class="st38" x="674.03" y="371.96" width="67.84" height="1.38"/>
                    <rect class="st38" x="753.87" y="371.96" width="26.31" height="1.38"/>
                    <rect class="st38" x="781.56" y="371.96" width="38.77" height="1.38"/>
                    <rect class="st38" x="822.63" y="371.96" width="13.85" height="1.38"/>
                    <rect class="st38" x="693.41" y="378.42" width="72.46" height="1.38"/>
                    <rect class="st38" x="626.03" y="378.42" width="8.77" height="1.38"/>
                    <rect class="st38" x="637.11" y="378.42" width="10.15" height="1.38"/>
                    <rect class="st38" x="651.87" y="378.42" width="16.15" height="1.38"/>
                    <rect class="st38" x="674.03" y="378.42" width="16.15" height="1.38"/>
                    <rect class="st38" x="768.64" y="378.42" width="11.54" height="1.38"/>
                    <rect class="st38" x="781.56" y="378.42" width="54.92" height="1.38"/>
                    <rect class="st38" x="768.64" y="384.88" width="11.54" height="1.38"/>
                    <rect class="st38" x="624.65" y="384.88" width="10.15" height="1.38"/>
                    <rect class="st38" x="651.87" y="384.88" width="16.15" height="1.38"/>
                    <rect class="st38" x="637.11" y="384.88" width="10.15" height="1.38"/>
                    <rect class="st38" x="674.03" y="384.88" width="16.15" height="1.38"/>
                    <rect class="st38" x="693.41" y="384.88" width="72.46" height="1.38"/>
                    <rect class="st38" x="781.56" y="384.88" width="54.92" height="1.38"/>
                    <rect class="st38" x="624.65" y="391.34" width="10.15" height="1.38"/>
                    <rect class="st38" x="651.87" y="391.34" width="13.85" height="1.38"/>
                    <rect class="st38" x="674.49" y="391.34" width="15.69" height="1.38"/>
                    <rect class="st38" x="637.11" y="391.34" width="10.15" height="1.38"/>
                    <rect class="st38" x="693.41" y="391.34" width="19.85" height="1.38"/>
                    <rect class="st38" x="716.02" y="391.34" width="18.46" height="1.38"/>
                    <rect class="st38" x="738.64" y="391.34" width="27.23" height="1.38"/>
                    <rect class="st38" x="768.64" y="391.34" width="67.84" height="1.38"/>
                    <rect class="st38" x="624.65" y="397.8" width="22.61" height="1.38"/>
                    <rect class="st38" x="651.87" y="397.8" width="13.85" height="1.38"/>
                    <rect class="st38" x="674.49" y="397.8" width="38.77" height="1.38"/>
                    <rect class="st38" x="716.02" y="397.8" width="18.46" height="1.38"/>
                    <rect class="st38" x="738.64" y="397.8" width="27.23" height="1.38"/>
                    <rect class="st38" x="768.64" y="397.8" width="67.84" height="1.38"/>
                  </g>
                  <g>
                    <g>
                      <rect class="st50" x="632.61" y="297.93" width="123.08" height="92.74"/>
                      <rect class="st59" x="632.59" y="297.93" width="123.12" height="6.94"/>
                    </g>
                    <g>
                      <path class="st9" d="M749.24,301.31c0,1.33-1.08,2.41-2.41,2.41s-2.41-1.08-2.41-2.41,1.08-2.41,2.41-2.41,2.41,1.08,2.41,2.41Z"/>
                      <path class="st7" d="M737.66,301.31c0,1.33-1.08,2.41-2.41,2.41s-2.41-1.08-2.41-2.41,1.08-2.41,2.41-2.41,2.41,1.08,2.41,2.41Z"/>
                      <path class="st10" d="M726.72,301.31c0,1.33-1.08,2.41-2.41,2.41s-2.41-1.08-2.41-2.41,1.08-2.41,2.41-2.41,2.41,1.08,2.41,2.41Z"/>
                    </g>
                    <g>
                      <rect class="st7" x="640.97" y="313.9" width="4.83" height="1.38"/>
                      <rect class="st7" x="662" y="313.9" width="67.57" height="1.38"/>
                      <rect class="st7" x="640.97" y="319.42" width="4.83" height="1.38"/>
                      <polygon class="st7" points="662 319.42 662 320.8 713.36 320.8 713.36 319.76 724.4 319.76 724.4 320.8 725.09 320.8 725.09 319.42 662 319.42"/>
                      <rect class="st7" x="640.97" y="324.94" width="4.83" height="1.38"/>
                      <rect class="st7" x="662" y="324.94" width="45.16" height="1.38"/>
                      <polygon class="st7" points="725.09 325.62 725.09 324.94 724.4 324.94 724.4 326.32 729.57 326.32 729.57 325.62 725.09 325.62"/>
                      <polygon class="st7" points="662 330.45 662 331.14 645.79 331.14 645.79 330.45 640.97 330.45 640.97 331.83 679.92 331.83 679.92 330.45 662 330.45"/>
                      <rect class="st7" x="698.54" y="330.45" width="8.62" height="1.38"/>
                      <rect class="st7" x="723.36" y="330.45" width="6.55" height="1.38"/>
                      <rect class="st7" x="640.97" y="335.97" width="21.03" height="1.38"/>
                      <rect class="st7" x="698.54" y="335.97" width="34.13" height="1.38"/>
                      <rect class="st7" x="640.97" y="341.48" width="21.03" height="1.38"/>
                      <polygon class="st7" points="732.67 341.48 698.54 341.48 698.54 342.52 679.92 342.52 679.92 341.48 678.54 341.48 678.54 342.86 694.06 342.86 694.06 342.86 705.78 342.86 705.78 342.86 707.5 342.86 707.5 341.83 714.74 341.83 714.74 342.86 718.88 342.86 718.88 342.17 732.67 342.17 732.67 341.48"/>
                      <polygon class="st7" points="694.06 347 678.54 347 678.54 347.35 662 347.35 662 347 640.97 347 640.97 348.38 694.06 348.38 694.06 347"/>
                      <rect class="st7" x="705.78" y="347" width="1.72" height="1.38"/>
                      <rect class="st7" x="714.74" y="347" width="4.14" height="1.38"/>
                      <rect class="st9" x="642" y="365.62" width="21.03" height="1.38"/>
                      <rect class="st9" x="681.3" y="365.62" width="4.14" height="1.38"/>
                      <rect class="st9" x="696.13" y="365.62" width="18.27" height="1.38"/>
                      <rect class="st9" x="641.66" y="372.17" width="21.37" height="1.38"/>
                      <rect class="st9" x="681.3" y="372.17" width="4.14" height="1.38"/>
                      <rect class="st9" x="696.13" y="372.17" width="2.41" height="1.38"/>
                      <rect class="st9" x="707.85" y="372.17" width="6.55" height="1.38"/>
                      <rect class="st9" x="641.31" y="378.72" width="21.72" height="1.38"/>
                      <rect class="st9" x="681.3" y="378.72" width="31.37" height="1.38"/>
                    </g>
                  </g>
                  <g>
                    <g>
                      <rect class="st50" x="764.9" y="333.89" width="90.83" height="68.44"/>
                      <rect class="st59" x="764.89" y="333.89" width="90.86" height="5.12"/>
                    </g>
                    <g>
                      <path class="st9" d="M850.97,336.38c0,.98-.8,1.78-1.78,1.78s-1.78-.8-1.78-1.78.8-1.78,1.78-1.78,1.78.8,1.78,1.78Z"/>
                      <path class="st7" d="M842.42,336.38c0,.98-.8,1.78-1.78,1.78s-1.78-.8-1.78-1.78.8-1.78,1.78-1.78,1.78.8,1.78,1.78Z"/>
                      <path class="st10" d="M834.35,336.38c0,.98-.8,1.78-1.78,1.78s-1.78-.8-1.78-1.78.8-1.78,1.78-1.78,1.78.8,1.78,1.78Z"/>
                    </g>
                    <g>
                      <rect class="st10" x="770.51" y="347.91" width="12.66" height=".49"/>
                      <rect class="st10" x="793.15" y="347.91" width="16.55" height=".49"/>
                      <rect class="st10" x="784.88" y="347.91" width="6.82" height=".49"/>
                      <rect class="st10" x="812.14" y="347.91" width="3.9" height=".49"/>
                      <rect class="st10" x="816.77" y="347.91" width="20.45" height=".49"/>
                      <rect class="st10" x="837.95" y="347.91" width="4.14" height=".49"/>
                      <rect class="st10" x="842.58" y="347.91" width="6.82" height=".49"/>
                      <rect class="st10" x="770.51" y="349.13" width="12.66" height=".73"/>
                      <rect class="st10" x="784.88" y="349.13" width="6.82" height=".73"/>
                      <rect class="st10" x="793.15" y="349.13" width="16.55" height=".73"/>
                      <rect class="st10" x="812.14" y="349.13" width="3.9" height=".73"/>
                      <polygon class="st10" points="816.77 349.13 816.77 349.86 828.7 349.86 828.7 349.37 829.43 349.37 829.43 349.86 837.22 349.86 837.22 349.13 816.77 349.13"/>
                      <rect class="st10" x="837.95" y="349.13" width="4.14" height=".73"/>
                      <rect class="st10" x="842.58" y="349.13" width="6.82" height=".73"/>
                      <rect class="st10" x="770.51" y="355.46" width="21.42" height=".49"/>
                      <rect class="st10" x="792.42" y="355.46" width="8.52" height=".49"/>
                      <rect class="st10" x="802.89" y="355.46" width="6.82" height=".49"/>
                      <rect class="st10" x="812.14" y="355.46" width="16.56" height=".49"/>
                      <rect class="st10" x="838.44" y="355.46" width="10.96" height=".49"/>
                      <rect class="st10" x="829.43" y="355.46" width="7.79" height=".49"/>
                      <rect class="st10" x="792.42" y="356.68" width="8.52" height="1.95"/>
                      <rect class="st10" x="770.51" y="356.68" width="21.42" height="1.95"/>
                      <rect class="st10" x="802.89" y="356.68" width="6.82" height="1.95"/>
                      <polygon class="st10" points="837.22 356.68 829.43 356.68 829.43 358.38 828.7 358.38 828.7 356.68 812.14 356.68 812.14 358.62 837.22 358.62 837.22 356.68"/>
                      <polygon class="st10" points="838.44 356.68 838.44 358.62 842.33 358.62 842.33 357.41 845.5 357.41 845.5 358.62 849.39 358.62 849.39 356.68 838.44 356.68"/>
                      <polygon class="st10" points="782.2 366.03 770.76 366.03 770.76 368.29 777.57 368.29 777.57 366.17 782.2 366.17 782.2 366.03"/>
                      <rect class="st10" x="825.53" y="366.03" width="3.41" height=".14"/>
                      <polygon class="st10" points="838.68 366.03 838.68 366.17 843.06 366.17 843.06 368.29 849.64 368.29 849.64 366.03 838.68 366.03"/>
                      <rect class="st10" x="832.59" y="366.03" width="4.87" height=".14"/>
                      <rect class="st10" x="792.67" y="379.81" width="8.52" height=".87"/>
                      <rect class="st10" x="793.88" y="375.18" width="7.3" height="1.46"/>
                      <polygon class="st10" points="770.76 375.18 770.76 376.64 779.03 376.64 779.03 375.42 779.28 375.42 779.28 376.64 780.98 376.64 780.98 375.18 770.76 375.18"/>
                      <rect class="st10" x="781.22" y="375.18" width="9.25" height="1.46"/>
                      <rect class="st10" x="781.22" y="379.81" width="10.96" height=".87"/>
                      <rect class="st10" x="770.76" y="379.81" width="8.28" height=".87"/>
                      <rect class="st10" x="779.28" y="379.81" width="1.7" height=".87"/>
                      <rect class="st10" x="803.13" y="375.18" width="5.6" height="1.46"/>
                      <rect class="st10" x="803.13" y="379.81" width="5.6" height=".87"/>
                      <rect class="st10" x="832.59" y="375.18" width="4.87" height="1.46"/>
                      <rect class="st10" x="812.39" y="375.18" width="16.56" height="1.46"/>
                      <rect class="st10" x="811.55" y="388.68" width="16.56" height="1.46"/>
                      <rect class="st10" x="831.43" y="388.68" width="16.56" height="1.46"/>
                      <rect class="st10" x="812.39" y="379.81" width="16.8" height=".87"/>
                      <rect class="st10" x="832.59" y="379.81" width="4.87" height=".87"/>
                      <rect class="st10" x="838.68" y="375.18" width="3.9" height="1.46"/>
                      <rect class="st10" x="845.74" y="375.18" width="3.9" height="1.46"/>
                      <rect class="st10" x="838.68" y="379.81" width="3.9" height=".87"/>
                      <rect class="st10" x="845.74" y="379.81" width="3.9" height=".87"/>
                      <polygon class="st10" points="801 383.62 801 383.75 805.38 383.75 805.38 385.87 811.96 385.87 811.96 383.62 801 383.62"/>
                      <rect class="st10" x="794.92" y="392.76" width="4.87" height="1.46"/>
                      <rect class="st10" x="774.71" y="392.76" width="16.56" height="1.46"/>
                      <rect class="st10" x="774.71" y="397.39" width="16.8" height=".87"/>
                      <rect class="st10" x="794.92" y="397.39" width="4.87" height=".87"/>
                      <rect class="st10" x="801" y="392.76" width="3.9" height="1.46"/>
                      <rect class="st10" x="808.06" y="392.76" width="3.9" height="1.46"/>
                      <rect class="st10" x="801" y="397.39" width="3.9" height=".87"/>
                      <rect class="st10" x="808.06" y="397.39" width="3.9" height=".87"/>
                      <rect class="st10" x="770.51" y="344.26" width="12.66" height="1.7"/>
                      <rect class="st10" x="784.88" y="344.26" width="6.82" height="1.7"/>
                      <rect class="st10" x="793.15" y="344.26" width="16.55" height="1.7"/>
                      <polygon class="st10" points="837.22 345.96 837.22 344.26 812.14 344.26 812.14 345.96 816.04 345.96 816.04 344.75 816.77 344.75 816.77 345.96 837.22 345.96"/>
                      <polygon class="st10" points="837.95 344.26 837.95 345.96 842.09 345.96 842.09 345.48 842.58 345.48 842.58 345.96 849.39 345.96 849.39 344.26 837.95 344.26"/>
                    </g>
                  </g>
                </g>
                <g>
                  <g>
                    <rect class="st47" x="706.71" y="490.35" width="68.66" height="5.58" transform="translate(-2.83 4.28) rotate(-.33)"/>
                    <polygon class="st16" points="573.57 491.32 569.42 496.93 724.31 496.03 724.28 490.45 573.57 491.32"/>
                  </g>
                  <polygon class="st57" points="589.36 486.49 573.57 491.32 775.35 490.15 771.14 485.43 589.36 486.49"/>
                </g>
                <g>
                  <path class="st3" d="M862.07,496.93h-50.57c4.99-7.55,13.24-14.82,28.75-13.88,1.91.12,3.72.39,5.42.81,8.57,2.07,14.41,7.56,16.4,13.08Z"/>
                  <path class="st7" d="M862.07,496.93h-34.41c3.68-5.57,9.15-11,18.01-13.08,8.57,2.07,14.41,7.56,16.4,13.08Z"/>
                </g>
              </g>
              <g>
                <path class="st57" d="M952.55,486.28c.41,5.94-4.07,10.75-10,10.75h-33.69c-5.94,0-10.15-4.81-9.41-10.75l8.51-68.09c.74-5.94,4.64-10.75,8.7-10.75h23.06c4.06,0,7.69,4.81,8.1,10.75l4.72,68.09Z"/>
                <path class="st59" d="M943.38,484.4c.33,4.64-3.25,8.4-7.99,8.4h-26.9c-4.74,0-8.11-3.76-7.51-8.4l6.8-53.22c.59-4.64,3.7-8.4,6.95-8.4h18.42c3.25,0,6.14,3.76,6.47,8.4l3.77,53.22Z"/>
                <g>
                  <path class="st57" d="M922.85,488.21c-9.78,0-17.75-7.96-17.75-17.74s7.96-17.75,17.75-17.75,17.74,7.96,17.74,17.75-7.96,17.74-17.74,17.74ZM922.85,454.04c-9.06,0-16.42,7.37-16.42,16.42s7.37,16.42,16.42,16.42,16.42-7.37,16.42-16.42-7.37-16.42-16.42-16.42Z"/>
                  <path class="st57" d="M922.85,456.85c-7.51,0-13.62,6.11-13.62,13.61s6.11,13.61,13.62,13.61,13.61-6.11,13.61-13.61-6.11-13.61-13.61-13.61Z"/>
                </g>
                <g>
                  <path class="st57" d="M922.85,448.54c-5.53,0-10.03-4.5-10.03-10.03s4.5-10.03,10.03-10.03,10.03,4.5,10.03,10.03-4.5,10.03-10.03,10.03ZM922.85,429.21c-5.12,0-9.29,4.17-9.29,9.29s4.17,9.29,9.29,9.29,9.29-4.17,9.29-9.29-4.17-9.29-9.29-9.29Z"/>
                  <path class="st57" d="M922.85,430.8c-4.25,0-7.7,3.45-7.7,7.7s3.45,7.7,7.7,7.7,7.7-3.45,7.7-7.7-3.45-7.7-7.7-7.7Z"/>
                </g>
              </g>
              <g>
                <g>
                  <g>
                    <g>
                      <path class="st14" d="M583.86,826.52c-8.4-4.75-15.46-18.44-18.83-26.85-5.43-13.56-3.72,10.11-14.18,7.49-4.29-1.07-7.12,5.3-8.12,9-2.39,8.82-.57,23.39.95,29.14,12.47,1.63,18.91,1.54,31.49,1.71,7.24.1,22.89.19,27.25-6.39-3.42-9.2-11.18-9.93-18.57-14.11Z"/>
                      <path class="st46" d="M546.38,758.51c-.21,10.43-1.88,20.25-.93,30.98.8,9.1-1.55,23.35,5.75,30.01,14.36-7.13,14.25-39.68,18.22-53.66l-23.03-7.33Z"/>
                      <path class="st14" d="M537.42,790.66l28.8,1.82c.87-3.66,1.73-7.34,2.57-11.04,11.89-51.87,30.37-108.59,33.83-163.22l-51.15-11.25c-9.13,1.08-14.37,32.85-15.94,43.9-3.46,24.45-.38,49.48.61,73.98.84,20.95,2.14,43.64,1.28,65.8Z"/>
                    </g>
                    <g>
                      <path class="st14" d="M708.82,826.52c-8.4-4.75-15.46-18.44-18.83-26.85-5.43-13.56-3.72,10.11-14.18,7.49-4.29-1.07-7.12,5.3-8.12,9-2.39,8.82-.57,23.39.95,29.14,12.47,1.63,18.91,1.54,31.49,1.71,7.24.1,22.89.19,27.25-6.39-3.42-9.2-11.18-9.93-18.57-14.11Z"/>
                      <path class="st46" d="M671.34,758.51c-.21,10.43-1.88,20.25-.93,30.98.81,9.1-1.55,23.35,5.75,30.01,14.36-7.13,14.25-39.68,18.22-53.66l-23.03-7.33Z"/>
                      <path class="st14" d="M727.58,618.22c0,.07,0,.15-.02.22-2.41,37.69-11.96,76.37-21.54,113.77-4.3,16.74-8.59,33.22-12.27,49.23-.85,3.7-1.7,7.37-2.57,11.04l-28.8-1.82c.86-22.15-.44-44.84-1.28-65.8-.98-24.51-4.07-49.53-.61-73.99.34-2.39.85-5.76,1.54-9.59,1.72-9.57,4.54-21.96,8.49-28.94,1.75-3.09,3.71-5.11,5.91-5.37l51.15,11.25Z"/>
                    </g>
                  </g>
                  <path class="st14" d="M727.57,618.44c-.69,2.1-1.9,4.27-3.68,6.5-6.98,8.7-20.47,12.85-35.44,14.78-8.63,1.11-17.75,1.49-26.41,1.57-10.24.09-19.84-.23-27.19-.23-20.87,0-41.52.05-62.09-1.67-11.16-.94-25.29,0-37.38-1.6-3.98-.53-7.74-1.34-11.1-2.58l5.73-66.98c38.95-3.42,58.03-8.41,95.98-.42,13,2.74,111.59,20.14,101.57,50.65Z"/>
                  <path class="st60" d="M706.02,732.21c-4.3,16.74-8.59,33.22-12.27,49.23-.85,3.7-1.7,7.37-2.57,11.04l-28.8-1.82c.86-22.15-.44-44.84-1.28-65.8-.98-24.51-4.07-49.53-.61-73.99.34-2.39.85-5.76,1.54-9.59-10.24.09-19.84-.23-27.19-.23-20.87,0-41.52.05-62.09-1.67-11.16-.94-25.29,0-37.38-1.6l3.36-31.91c3.91,5.72,30.81,4.68,39.22,5.02,18.55.75,36.82.31,55.27,1.26,11.15.57,24.29.11,37.31.2,14.53.1,28.9.89,40.19,4.55-9.17,1.23-16.56,4.35-24.9,8.13,5.06,2.97,13.64,4.47,18.62,6.95-6.68-.77-11.91,2.42-16,7.76-10.5,13.71-13.45,41.61-14.05,52.81-.67,12.35.42,29.39,11.37,37.43,7.1,5.22,13.67,4.39,20.26,2.24Z"/>
                </g>
                <g>
                  <g>
                    <g>
                      <path class="st31" d="M556.45,286.05h-5.79c-6.21,0-11.26-4.97-11.26-11.08v-3.37c0-6.11,5.05-11.08,11.26-11.08h5.79c6.21,0,11.26,4.97,11.26,11.08v3.37c0,6.11-5.05,11.08-11.26,11.08ZM550.65,262.43c-5.06,0-9.17,4.11-9.17,9.16v3.37c0,5.05,4.11,9.16,9.17,9.16h5.79c5.06,0,9.17-4.11,9.17-9.16v-3.37c0-5.05-4.11-9.16-9.17-9.16h-5.79Z"/>
                      <g>
                        <g>
                          <path class="st45" d="M551.2,280.19c-.31,2.57-1.11,11.79-.97,16.95.18,6.43.97,13.1,2.23,19.3-7.08,2.6-17.78-6.23-22.38-10.9-6.97-7.08-10.88-15.67-12.04-25.47l33.16.11Z"/>
                          <path class="st17" d="M546.19,285.27c-4.16-.07-7.08,6.75-7.44,10.23-.68,6.48,5.54,12.55,4.23,18.61-4.79-1.84-10.54-8.08-14.21-11.74-3.74-3.73-10.54-10.89-10.29-16.55l27.71-.55Z"/>
                        </g>
                        <path class="st46" d="M555.86,293.88c-.33,11.36-2.59,22.59-2.53,24.57h0c0,.21,0,.41,0,.6-.01.87-.14,1.73-.52,2.52-.38.77-1,1.47-1.99,1.99-4.07,2.15-9.37,2.35-14.39,1.39-.84-.16-1.67-.35-2.49-.57-.56-.15-1.11-.31-1.65-.49-1.87-.61-3.63-1.35-5.19-2.19-2.32-1.25-4.2-2.7-5.36-4.2-.46-.6-.8-1.21-1.01-1.81-.01.27-.03.57-.04.88,0,.15-.02.31-.02.47,0,.06,0,.13,0,.2-.01.19-.02.39-.03.59,0,.07,0,.13,0,.2v.05c0,.17-.01.34-.02.52,0,.23-.02.47-.03.71,0,.25-.02.5-.03.77-.03.71-.05,1.47-.08,2.26-.04,1.21-.08,2.48-.11,3.78,0,.39-.02.78-.03,1.18-.06,2.28-.12,4.64-.17,6.94,0,.2,0,.41-.01.61-.04,1.64-.07,3.25-.1,4.76-.04,2.05-.07,3.94-.09,5.55-.05,3.17-.07,5.25-.05,5.34-.04.01-.08.02-.12.03-3.18.85-8.11,1.24-13.79,1.22-10.33-.03-23.13-1.43-32.26-3.87h0c-3.64-.98-6.7-2.12-8.79-3.41-.74-.45-1.35-.92-1.83-1.41-.02-.02-.03-.03-.05-.05-.08-.08-.16-.17-.23-.26,1.05-1.88,1.8-6.09,2.33-11.39.06-.59.12-1.18.17-1.8.08-.92.16-1.86.23-2.83.23-3.24.41-6.72.55-10.21.26-6.9.37-13.9.44-19.34h0c.04-2.88.07-5.32.11-7.1.03-1.36.04-2.54.03-3.5-.19-11.77-1.56-23.5-2.39-35.3-1.26-18.09,72.95-14.3,72.95-14.3,5.6,4.3,7.47,10.63,9.01,17.6.03.12.05.23.08.35.47,2.14.91,4.35,1.42,6.57.06.26.12.51.18.77.05.21.1.43.15.64,0,.01,0,.02,0,.03.02.08.04.16.06.25.2.78.4,1.57.62,2.35.1.34.2.67.3,1.01.44,1.42.93,2.84,1.51,4.25.23.23.45.47.66.72.4.47.77.99,1.1,1.54,1.34,2.19,2.23,4.96,2.78,8.06.69,3.91.85,8.34.72,12.74Z"/>
                      </g>
                      <path class="st15" d="M552.8,321.57c-.38.78-1,1.47-1.99,1.99-10.14,5.36-27.86-1.42-30.09-7.87-.44,8.52-1.24,40.82-.88,42.47-12.12,3.33-50.65-7.9-57.01-15.42,3.71-6.63,3.57-41.95,3.82-52.66l51.07-11.96c.75,1.42-.1,4.47-.16,6.29-.08,2.31-.04,4.75.11,7.06.28,4.4,1.51,8.97,3.41,13.04,3.52,7.53,10.29,15.61,18.8,17.58,3.56.82,8.67.91,12.92-.54Z"/>
                      <path class="st46" d="M560.46,287.11c-.34-.61-2.54-1.65-3.19-2.37-1.38-1.54-2.09-3.66-3.03-5.47-1.29-2.47-3.1-7.43-4.94-8.56l.77,24.34c2.81-.97,14.25-.98,10.39-7.93Z"/>
                      <g>
                        <g>
                          <path class="st25" d="M552.36,273.07c-.12.11-.24.2-.36.28-.34.22-.71.35-1.1.39-.84.07-1.65-.33-2.34-1.06-.95-1-1.65-2.64-1.81-4.54-.06-.75-.04-1.47.07-2.14.19-1.27.64-2.35,1.28-3.09,0,.01,0,.02,0,.03.02.08.04.16.06.25.2.78.4,1.57.62,2.35.1.34.2.67.3,1.01.44,1.42.93,2.84,1.51,4.25.23.23.45.47.66.72.4.47.77.99,1.1,1.54Z"/>
                          <path class="st25" d="M548.79,265.56c-.68.1-1.35.26-1.98.45-1.68.51-3.02,1.31-3.37,2.26.44-2.72,2.13-5.01,4.5-5.99.05.21.1.43.15.64,0,.01,0,.02,0,.03.02.08.04.16.06.25.2.78.4,1.57.62,2.35Z"/>
                        </g>
                        <path class="st44" d="M550.45,256.1c-1.69-1.71-6.18-2.2-8.98-.33-2.98,1.62-6.74,5.88-6.21,7.24.25,1.11,7.92-.4,9.79-.88,1.83-.6,9.95-1.21,5.4-6.03Z"/>
                      </g>
                      <path class="st44" d="M463.18,230.34c6.6-19.43,26-17.19,48.28-16.42,23.8.82,41.26,9.8,41.26,9.8-.34,15.5,1.12,16.46-5.05,30.56-3.87.52-16.27,21.46-31.39,10.46,5.5,9.47,6.22,33.63,1.19,44.33-4.61,9.78-8.09,3.29-15.96,8.98-1.53-2.8-3.75-5.58-5.98-7.5.86,5.54,2.71,11.36,1.78,17.15-6.53,3.57-12.55,3.87-20.13,4.23-10.98.51-12.38-.6-15.59-10.51-4.94-15.2-4.08-23.21-11-37.68-5.25-15.04-15.37-39.09,12.59-53.39Z"/>
                      <polygon class="st31" points="513.88 278.74 566.04 269.71 566.66 272.85 515.94 281.87 513.88 278.74"/>
                      <g>
                        <path class="st46" d="M506.19,277.87c6.69-7.68,14.51,2,17.62,5.83,0,0-.07,13.34-3.67,16.42-4.35,3.73-10.67.17-13.45-3.61-3.7-5.02-5.51-12.88-.5-18.64Z"/>
                        <path class="st15" d="M506.46,282.13c2.1-5.82,7.66-3.02,10.12.9-8.59-3.26-9.51,6.66-7.37,12.27-2.1-3.94-4.41-8.52-2.74-13.17Z"/>
                      </g>
                    </g>
                    <path class="st9" d="M586.52,570.59c-.15.08-.3.16-.45.24-10.2,5.35-29.47,10.71-41.5,13.3-3.04.65-5.62,1.13-7.47,1.38-20.46,2.79-40.25,2.48-60.19-1.96-5.26-19.22-17.42-36.95-21.89-56.57-5.15-22.67-13.72-55.49-14.81-79.02-.81-17.42-11.91-62.74-10.86-80.29.77-12.89,18.23,1.25,22.46-10.24l.13-10.51c-.8-6.33-1.93-13-.88-19.52,19.26-.75,45.8-3.25,62.82,4.79,15.28,7.22,33.74,9.71,47.28,21.92,7.79,7.01,10.27,66.24,14.23,119.8,3.18,42.86,7.3,82.08,15.86,88.04,3.61,2.51.98,5.58-4.74,8.66Z"/>
                  </g>
                  <path class="st5" d="M586.08,570.83c-10.2,5.35-29.47,10.71-41.5,13.3-3.44-26.76,6.24-66.27,1.21-85.61-5.22-20.06-6.87-37.44-10.05-57.77-1.38-8.86.2-27.35-.25-36.27-.32-6.38,1.31-14.21-.84-20.05l21.77,53.59c1.72,13.76,12.08,24.2,18.99,35.89,3.18,42.86,7.3,82.08,15.86,88.04,1.03.72,3.5,4.4-5.19,8.9Z"/>
                  <g>
                    <g>
                      <circle class="st14" cx="513.08" cy="322.74" r="23.44" transform="translate(112.32 777.5) rotate(-80.78)"/>
                      <circle class="st32" cx="516.85" cy="322.74" r="17.16" transform="translate(171.02 824.43) rotate(-87.4)"/>
                      <circle class="st14" cx="520.83" cy="322.74" r="11.51" transform="translate(-75.66 462.81) rotate(-45)"/>
                    </g>
                    <path class="st54" d="M521.66,318.27c-19,6.05-49.45,1.63-67.64-5.7.08,3.68-.81,11.68-.6,15.33,9.3,4.09,19.01,4.53,29.31,5.02,10.69.51,30.5-2.28,40.19-6.7l-1.26-7.95Z"/>
                    <path class="st54" d="M527.11,322.04c0,2.54-2.06,4.61-4.6,4.61s-4.61-2.06-4.61-4.61,2.06-4.6,4.61-4.6,4.6,2.06,4.6,4.6Z"/>
                  </g>
                  <g>
                    <path class="st9" d="M611.02,494.07c-.34.28-.68.56-1.03.83-5.41,4.13-12.43,6.29-26.04-4.28-1.53-1.18-3.14-2.53-4.83-4.05-10.82-9.68-19.83-29.23-28.15-40.61-.95-1.31-1.91-2.65-2.86-4.05-13.67-20-26.58-48.59-26.23-72.64.15-10.14,2.47-17.82,12.25-20.6,6.58-1.87,18.95-9.25,34.9,16.09,0,0,26.11,54.6,38.24,93.11,5.66,17.98,8.28,32.45,3.76,36.2Z"/>
                    <g>
                      <path class="st46" d="M702.85,469.3c-9.68-3.22-21.44,3-30.26,6.88l8.94,9.18c6.83,1.31,9.65,1.35,16.51,1.16,18.75-.53,20.61,2.42,26.92.73-1.38-8.33-12.55-14.76-22.11-17.94Z"/>
                      <path class="st9" d="M688.85,487.37c-.8,1.68-19.09,6.31-37.08,10.28-14.96,3.29-29.72,6.13-34.04,6.43-13.14.9-26.02-3.94-33.79-13.46-4.03-4.94-6.69-11.12-7.3-18.42-.05-.51-.08-1.02-.1-1.54l16.68-12.61c4.76-1.03,9.31-.94,14.03-.18,16.71,2.69,35.5,13.83,72.74,14.14,0,0,10.73,11.43,8.86,15.36Z"/>
                    </g>
                  </g>
                  <path class="st5" d="M651.77,497.65c-14.96,3.29-29.72,6.13-34.04,6.43-13.14.9-26.02-3.94-33.79-13.46-1.53-1.18-3.14-2.53-4.83-4.05-10.82-9.68-19.83-29.23-28.15-40.61-.95-1.31-1.91-2.65-2.86-4.05-6.62-19.43-14.27-30.89-13.62-50.77,6.91,32.02,35.89,72.39,42.16,81.06,5.07,7.02,10.83,13.57,17.93,19.31-.87-4.69-.66-10-.3-14.73,3.8,9.42,9.05,14.99,15.7,18.13,7.28,3.43,16.24,3.96,26.81,3.43,4.85-.24,9.91-.43,14.98-.69Z"/>
                </g>
                <g>
                  <g>
                    <path class="st56" d="M428.48,711.46c0,2.63-1.48,4.76-3.3,4.76h-22.2c-1.82,0-3.3-2.13-3.3-4.76h0c0-2.63,1.48-4.76,3.3-4.76h22.2c1.82,0,3.3,2.13,3.3,4.76h0Z"/>
                    <path class="st56" d="M418.74,713.51c7.83-1.25,15.83-.66,23.66-1.97,7.93-1.32,14.45-5.68,20.98-10.11,6.44-4.37,12.81-8.89,19.97-12.02,7.72-3.38,16.64-3.2,24.86-4.34,2.41-.34,1.38-3.99-1.01-3.66-8.24,1.14-16.9,1.08-24.71,4.28-7.18,2.94-13.57,7.38-19.94,11.73-6.64,4.53-13.1,9-21.15,10.46-7.8,1.41-15.83.72-23.66,1.97-2.41.38-1.38,4.04,1.01,3.65h0Z"/>
                  </g>
                  <g>
                    <rect class="st8" x="384.62" y="636.76" width="282.01" height="28.58" rx="11.37" ry="11.37"/>
                    <path class="st56" d="M678.5,636.76v1.04c0,7.08-4.89,13.15-11.86,15.72v.45c0,6.28-5.09,11.37-11.37,11.37h-159.77c-5.99,0-10.9-4.63-11.34-10.51-.02-.28-.03-.57-.03-.86v-5.84c0-6.28,5.09-11.37,11.37-11.37h183Z"/>
                  </g>
                  <g>
                    <polygon class="st56" points="543.46 696.54 514.66 696.54 425.51 651.06 631.11 651.06 543.46 696.54"/>
                    <polygon class="st8" points="532.3 696.54 514.35 696.54 425.2 651.06 489.34 651.06 532.3 696.54"/>
                  </g>
                  <rect class="st56" x="521.19" y="698.82" width="13.9" height="48.52"/>
                  <g>
                    <rect class="st2" x="521.88" y="720.04" width="9.74" height="72.66"/>
                    <rect class="st56" x="517.02" y="720.04" width="22.24" height="72.66"/>
                    <rect class="st13" x="517.02" y="720.04" width="9.74" height="72.66"/>
                  </g>
                  <g>
                    <path class="st8" d="M546.33,701.21c0,2.58-1.65,4.68-3.69,4.68h-28.98c-2.03,0-3.68-2.09-3.68-4.68,0-1.29.41-2.46,1.08-3.31.67-.85,1.59-1.37,2.61-1.37h28.98c2.03,0,3.69,2.09,3.69,4.67Z"/>
                    <path class="st56" d="M546.33,701.21c0,2.58-1.65,4.68-3.69,4.68h-10.8c-2.04,0-3.69-2.09-3.69-4.68,0-1.29.41-2.46,1.08-3.31.67-.85,1.59-1.37,2.61-1.37h10.8c2.03,0,3.69,2.09,3.69,4.67Z"/>
                  </g>
                  <g>
                    <g>
                      <path class="st56" d="M535.7,787.87v40.64c0,2.21-1.03,4.17-2.63,5.44-.56.45-1.19.81-1.87,1.07-.76.29-1.59.44-2.45.44s-1.69-.16-2.45-.44c-.68-.26-1.31-.62-1.87-1.07-.21-.16-.41-.34-.59-.53-1.26-1.26-2.04-3-2.04-4.92v-40.64c0-2.2,1.03-4.17,2.63-5.44.56-.45,1.19-.81,1.87-1.06.76-.29,1.59-.44,2.45-.44s1.69.16,2.45.44c.68.26,1.31.62,1.87,1.06.21.16.41.34.59.53,1.26,1.26,2.04,3,2.04,4.91Z"/>
                      <path class="st8" d="M529.75,813.34c0,.55-.45,1-1,1h0c-.55,0-1-.45-1-1v-23.78c0-.55.45-1,1-1h0c.55,0,1,.45,1,1v23.78Z"/>
                    </g>
                    <g>
                      <g>
                        <rect class="st56" x="522.87" y="812.39" width="9.42" height="13.66"/>
                        <rect class="st13" x="522.87" y="812.39" width="3.54" height="13.66"/>
                      </g>
                      <g>
                        <g>
                          <path class="st23" d="M523.96,835c0,7.58-6.15,13.73-13.73,13.73s-13.73-6.14-13.73-13.73,6.15-13.73,13.73-13.73,13.73,6.15,13.73,13.73Z"/>
                          <path class="st20" d="M517.09,835c0,3.79-3.07,6.86-6.86,6.86s-6.86-3.07-6.86-6.86,3.07-6.86,6.86-6.86,6.86,3.07,6.86,6.86Z"/>
                        </g>
                        <g>
                          <path class="st13" d="M534,830.41h-39.77c.43-7.06,9.17-12.7,19.88-12.7,1.5,0,2.95.11,4.36.32,8.64,1.28,15.16,6.3,15.53,12.38Z"/>
                          <path class="st56" d="M534,830.41h-31.06c.38-6.08,6.9-11.1,15.53-12.38,8.64,1.28,15.16,6.3,15.53,12.38Z"/>
                        </g>
                      </g>
                    </g>
                  </g>
                  <g>
                    <g>
                      <g>
                        <rect class="st56" x="401" y="810.61" width="9.42" height="13.66"/>
                        <rect class="st1" x="401" y="810.61" width="3.54" height="13.66"/>
                      </g>
                      <g>
                        <g>
                          <path class="st23" d="M402.09,833.21c0,7.58-6.15,13.73-13.73,13.73s-13.73-6.15-13.73-13.73,6.15-13.73,13.73-13.73,13.73,6.15,13.73,13.73Z"/>
                          <path class="st20" d="M395.23,833.21c0,3.79-3.07,6.87-6.86,6.87s-6.86-3.07-6.86-6.87,3.07-6.86,6.86-6.86,6.86,3.07,6.86,6.86Z"/>
                        </g>
                        <g>
                          <path class="st13" d="M412.13,828.63h-39.77c.44-7.06,9.17-12.7,19.88-12.7,1.5,0,2.95.11,4.36.32,8.64,1.28,15.16,6.3,15.53,12.38Z"/>
                          <path class="st56" d="M412.13,828.63h-31.06c.38-6.08,6.9-11.1,15.53-12.38,8.64,1.28,15.16,6.3,15.53,12.38Z"/>
                        </g>
                      </g>
                    </g>
                    <path class="st56" d="M517.08,771.06c-7.7,1.36-110.69,23.55-124.08,37.27-3.6,3.69,5.35,5.76,9.35,5.01l114.73-21.59v-20.69Z"/>
                    <path class="st13" d="M517.08,771.06v10.74c-17.19,2.81-108.19,18.07-123.13,27.73-.9.58-1.01,1.42-.85,2.04-1.08-.84-1.36-1.94-.1-3.23,13.39-13.73,116.38-35.91,124.08-37.28Z"/>
                    <path class="st13" d="M517,771.06v2.27c-7.43,1.32-105.93,22.17-124.76,35.96.13-.3.36-.62.68-.95,13.39-13.73,116.38-35.91,124.08-37.28Z"/>
                  </g>
                  <g>
                    <g>
                      <g>
                        <rect class="st56" x="645.88" y="810.61" width="9.42" height="13.66"/>
                        <rect class="st1" x="651.76" y="810.61" width="3.54" height="13.66"/>
                      </g>
                      <g>
                        <g>
                          <path class="st23" d="M654.21,833.21c0,7.58,6.15,13.73,13.73,13.73s13.73-6.15,13.73-13.73-6.15-13.73-13.73-13.73-13.73,6.15-13.73,13.73Z"/>
                          <path class="st20" d="M661.08,833.21c0,3.79,3.07,6.87,6.86,6.87s6.86-3.07,6.86-6.87-3.07-6.86-6.86-6.86-6.86,3.07-6.86,6.86Z"/>
                        </g>
                        <g>
                          <path class="st13" d="M644.17,828.63h39.77c-.43-7.06-9.17-12.7-19.88-12.7-1.5,0-2.95.11-4.36.32-8.64,1.28-15.16,6.3-15.53,12.38Z"/>
                          <path class="st56" d="M644.17,828.63h31.06c-.38-6.08-6.9-11.1-15.53-12.38-8.64,1.28-15.16,6.3-15.53,12.38Z"/>
                        </g>
                      </g>
                    </g>
                    <path class="st56" d="M539.22,771.06c7.7,1.36,110.69,23.55,124.08,37.27,3.6,3.69-5.35,5.76-9.35,5.01l-114.73-21.59v-20.69Z"/>
                    <path class="st13" d="M539.22,771.06v10.74c17.19,2.81,108.19,18.07,123.13,27.73.9.58,1.01,1.42.85,2.04,1.08-.84,1.36-1.94.1-3.23-13.39-13.73-116.38-35.91-124.08-37.28Z"/>
                    <path class="st13" d="M539.3,771.06v2.27c7.43,1.32,105.93,22.17,124.76,35.96-.13-.3-.36-.62-.68-.95-13.39-13.73-116.38-35.91-124.08-37.28Z"/>
                  </g>
                  <g>
                    <path class="st8" d="M638.28,515.74c-4.2-2.57-13.04-3.03-17.82-3.03h-84.67c2.85,7.43,5.16,15.11,7.57,22.74h79.19s.07.02.1.03h0s.03.02.04.03c0,0,0,0,.01,0,.24.19.48.39.67.58,0,0,0,.01,0,.01.02.03.03.05.05.08.17.27.33.55.49.83t0,0c.18.56.34,1.13.47,1.71h0c.1,1.83.03,3.67.03,5.49v74.64c0,6.2,5.17,11.37,11.37,11.37.92,0,1.82-.11,2.68-.33,4.94-1.22,8.7-5.76,8.7-11.04v-78.79c0-9.75-.46-19.18-8.88-24.33Z"/>
                    <path class="st8" d="M622.81,535.37c-.08-.1-.12-.16-.14-.17.01,0,.07.08.15.18,0,0-.01,0-.02,0Z"/>
                    <path class="st8" d="M622.88,535.46s0,0,0,0c0,0,.01,0,.02,0,0,0,0,.01.01.01,0,0-.02,0-.03-.01Z"/>
                    <path class="st8" d="M623.11,535.74c-.05-.06-.1-.12-.14-.17,0,0,.01,0,.02,0,.04.05.08.11.12.17,0,0,0,0,0,0Z"/>
                    <path class="st56" d="M631.15,524.08c-4.2-2.57-14.26-3.03-19.06-3.03h-73.33c1.6,4.77,3.08,9.6,4.59,14.4h79.19s.07.02.1.03h0s.03.02.04.03c0,0,0,0,.01,0,.24.19.48.39.67.58,0,0,0,.01,0,.01.02.03.03.05.05.08.17.27.33.55.49.83t0,0c.18.56.34,1.13.47,1.71h0c.1,1.83.03,3.67.03,5.49v74.64c0,6.2,5.17,11.37,11.37,11.37.92,0,1.82-.11,2.68-.33.22-.87.34-1.77.34-2.7v-78.79c0-9.75.78-19.18-7.65-24.33Z"/>
                    <path class="st51" d="M627.36,519.43c9.59.14,13.95,8.91,13.74,17.53-.05,1.83,2.8,1.83,2.84,0,.13-5.15-.99-10.53-4.3-14.6-3.06-3.76-7.47-5.7-12.28-5.77-1.83-.03-1.83,2.82,0,2.84h0Z"/>
                  </g>
                  <g>
                    <g>
                      <path class="st58" d="M374.94,337.8c.02,8.75,7.13,15.83,15.88,15.81l70.88-.16c8.75-.02,15.83-7.13,15.81-15.88l-.06-25.36c-.02-8.75-7.13-15.83-15.88-15.81l-70.89.16c-8.75.02-15.83,7.13-15.81,15.88l.06,25.36Z"/>
                      <path class="st28" d="M374.98,338.98c.62,8.2,7.48,14.65,15.83,14.63l70.89-.16c8.75-.02,15.83-7.13,15.81-15.88l-.06-25.36c-.02-8.41-6.59-15.28-14.87-15.78.03.39.05.78.05,1.18l.06,25.36c.02,8.75-7.06,15.86-15.81,15.88l-70.89.16c-.34,0-.68,0-1.01-.03Z"/>
                    </g>
                    <path class="st58" d="M563.63,582.76c-.49,11.02.27,25.54-2.79,37.1-.4,1.5-.86,2.96-1.4,4.35-.03.09-.07.18-.1.28-.23.58-5.59,31.13-5.85,31.68-25.34.31-59.22.92-90.03,1.18-17.39.15-33.79.18-47.13,0-19.18-.26-32.02-.99-32.33-2.52-7.93,0-14.76-7.02-15.49-16.2l-1.05-13.07-.32-4.04-20.31-253.1c-.07-.87-.08-1.73-.04-2.57.41-8.47,6.2-15.41,13.83-16.02,1.77-.75,8.69-1.84,17.22-2.94,3.83-.49,7.99-.98,12.15-1.45,10.1-1.13,57.43-2.29,85.68-.45t0,0c5.03.32,9.45.74,12.96,1.28,24.1,3.65,35.28,17.46,39.42,41.84.14.84.28,1.67.43,2.52,1.25,7.29,2.52,14.58,3.81,21.88.55,3.11,1.1,6.22,1.66,9.34,2.42,13.5,4.92,27.02,7.49,40.59.41,2.19.83,4.39,1.24,6.59.17.9.35,1.8.54,2.7,5.16,24.83,16.22,49.38,18.8,74.46.46,4.56.89,9.16,1.21,13.79.52,7.57.75,15.2.41,22.79Z"/>
                    <path class="st28" d="M520.83,605.93c-2.29,5.66-6.23,10.24-11.37,13.94-37.14,26.66-137.57,6.75-141.99,5.7l-.32-4.04-20.31-253.1c-.07-.87-.08-1.73-.04-2.57,2.77-.76,5.56-1.6,8.35-2.45,6.79-2.07,13.53-4.19,19.7-5.31,1.38-.26,2.74-.46,4.06-.6,21.31-2.28,41.86-.18,62.81,1.04,18.29,1.07,40.01.84,55.02,12.81,15.27,12.17,15.31,33.94,17.76,51.26,5.63,39.74,10.16,81.81,10.11,123.03-.02,18.37,2.98,43.65-3.77,60.29Z"/>
                  </g>
                  <path class="st58" d="M679.33,636.91v3.4c0,7.08-7.22,13.15-17.5,15.72-3.38.84-7.08,1.31-10.97,1.31h-234.53c-19.18-.26-32.02-.99-32.33-2.52-7.93,0-14.76-7.02-15.49-16.2l-1.05-13.07-.32-4.04c3.72-1.07,7.89-1.67,12.29-1.67h271.43c15.72,0,28.47,7.63,28.47,17.04Z"/>
                </g>
              </g>
            </g>
            <g>
              <path class="st0" d="M797.73,463.7c0,.95-.02,1.89-.07,2.83,0,.03,0,.06,0,.09,0,.01,0,.03,0,.04,0,.02,0,.03,0,.05-.01.23-.02.46-.04.69-.35,5.34-1.46,10.34-3.15,14.76-1.24,3.24-2.8,6.16-4.61,8.67-1.89,2.62-4.05,4.78-6.41,6.4h-19.93c-2.18-1.49-4.19-3.46-5.97-5.81-5.1-6.74-8.33-16.66-8.33-27.72,0-2.94.23-5.79.66-8.53h47.21c.34,2.14.55,4.36.63,6.63.02.63.03,1.26.03,1.9Z"/>
              <path class="st0" d="M797.63,466.37c-.08-.31.04.53.03.22-.01-.32-.1.52-.03.2.11-.53-.19.3.03-.09.05-.08.1-.16.15-.24.21-.31-.29.35-.04.06.18-.21.38-.39.58-.58.09-.09.19-.17.29-.25.35-.29-.33.24.05-.04.23-.17.47-.34.72-.5.58-.38,1.19-.72,1.8-1.04.61-.32,1.23-.61,1.87-.88-.36.16.17-.07.2-.08.16-.07.32-.13.49-.19.38-.14.76-.28,1.14-.41.63-.21,1.26-.39,1.9-.55.3-.07.6-.14.9-.19.14-.03.29-.05.43-.07.35-.06-.36.04.18-.02,1.39-.15,2.33.04,3.64.52.57.21-.3-.15.24.1.17.08.33.16.49.25.31.17.61.36.9.57-.31-.22.13.12.16.14.13.11.25.23.37.35.12.12.23.25.35.37.14.17.15.17.03.01.07.09.13.18.2.27.19.28.36.57.51.87.02.04.24.55.09.17.06.16.12.32.17.48.11.33.18.67.25,1.01.11.57-.03-.37.03.2.02.24.03.48.04.72.03,1.34-.46,3.01-1.03,4.2-1.34,2.84-3.61,4.62-6.44,6.09-1.46.76-2.7,1.22-4.36,1.77-1.57.51-3.17.92-4.78,1.3-2.24.52-4.6.84-6.74,1.69-1.31.52-2.46,1.2-3.28,2.39-.9,1.3-.68,2.95-.1,4.31,1.21,2.8,4.15,3.48,6.79,2.33,1.03-.45,2-1.47,2.22-2.59.33-1.64-.59-2.91-1.89-3.81-.84-.58-2.08-.16-2.57.67-.55.93-.17,1.99.67,2.57.45.31-.24-.23.12.1.34.31-.19-.32.04.02.22.34-.12-.41-.02-.05-.13-.44-.02-.32-.03-.1.02-.57-.09.01.13-.48-.05.12-.27.41.07-.03-.07.09-.15.16-.23.24-.22.21.35-.22-.09.05-.1.07-.22.12-.33.17.46-.22.08-.05-.03-.01-.12.04-.25.07-.38.09-.44.09.43-.03-.02,0-.13,0-.26,0-.39,0-.45-.02.42.08-.01-.01-.11-.02-.51-.18-.04.02-.11-.05-.56-.37-.17-.06-.11-.09-.2-.19-.29-.29.3.34.02-.02-.03-.11-.08-.15-.16-.3-.23-.45.18.39,0-.04-.02-.11-.03-.11-.11-.57-.04-.02-.02-.12-.02-.24-.01-.36,0-.41-.09.45,0,.06.11-.49-.14.22,0-.05.05-.1.11-.19.17-.27-.3.44-.1.14,0,.04.08-.08.17-.16.26-.23-.4.34-.09.08.01.01.21-.14.44-.26.67-.37.09-.04.51-.22.05-.03.17-.07.35-.13.52-.19,2.24-.79,4.67-1.12,6.97-1.68,3.32-.8,6.61-1.85,9.63-3.45,2.99-1.58,5.66-3.89,7.26-6.9,1.6-3.01,2.35-6.76,1.03-10.01-1.31-3.23-4.17-5.39-7.56-6.04-2.79-.54-5.54.11-8.17,1.07-2.2.8-4.4,1.8-6.29,3.18-1.57,1.15-3.31,2.8-2.78,4.95.58,2.35,4.2,1.35,3.62-1h0Z"/>
              <path class="st27" d="M783.61,459.88c0,17.87-9.55,32.35-21.32,32.35-1.64,0-3.23-.28-4.76-.81-5.1-6.74-8.33-16.66-8.33-27.72,0-2.94.23-5.79.66-8.53h33.53c.15,1.54.22,3.11.22,4.71Z"/>
              <path class="st19" d="M753.35,461.8c-1.13,4.08-.27,8.62.86,12.6.6,2.11,1.37,4.15,2.25,6.16.67,1.53,1.43,3.05,2.41,4.41.7.98,1.91,1.44,3.02.79.97-.56,1.49-2.04.79-3.02-.91-1.26-1.61-2.66-2.26-4.07-.08-.17-.15-.34-.23-.51-.05-.11-.1-.23-.15-.35q.1.23,0,0c-.2-.49-.39-.98-.57-1.47-.36-.96-.67-1.93-.96-2.92-.29-.99-.54-2-.75-3.02-.1-.47-.18-.93-.26-1.4-.01-.09-.13-.92-.06-.4-.03-.26-.06-.52-.09-.78-.09-.93-.12-1.87-.08-2.8,0-.18.02-.35.03-.53,0-.12.11-.89.02-.26.06-.43.16-.85.27-1.27.32-1.16-.38-2.4-1.54-2.71-1.16-.32-2.39.38-2.71,1.54h0Z"/>
            </g>
          </g>
        </g>
      </g>
    </g>
  </g>
</svg>