<svg xmlns="http://www.w3.org/2000/svg" xmlns:xlink="http://www.w3.org/1999/xlink" version="1.1" id="Layer_1" x="0px" y="0px" enable-background="new 0 0 1024 1024" xml:space="preserve" viewBox="46.28 373.72 934.62 231.16">
<path fill="#000000" opacity="1.000000" stroke="none" d=" M682.394775,499.490479   C685.749268,491.384583 689.978027,484.304901 695.705322,478.089996   C699.737183,473.714966 703.990295,471.047943 710.195801,473.364777   C717.819702,476.211212 720.968994,480.027588 721.313293,487.505341   C721.374573,488.835938 721.150574,490.205627 721.388611,491.496338   C721.806030,493.759705 719.747986,497.189453 724.239075,497.669769   C728.864136,498.164429 732.950684,496.192596 733.736023,492.544678   C736.082520,481.645905 738.952087,470.891632 742.753052,460.418182   C749.632263,441.462555 757.367981,422.891571 768.252319,405.793335   C770.372925,402.462067 773.183472,399.939117 776.640259,398.142853   C782.605286,395.043213 788.885254,398.867615 788.693054,405.549713   C788.544373,410.719757 787.643494,415.749603 785.762329,420.645264   C775.635254,447.001343 762.657776,471.903381 747.286255,495.536499   C741.477478,504.467163 741.409790,513.610168 744.620972,523.119751   C746.636292,529.087952 751.655029,530.160583 758.018127,526.132935   C766.425659,520.811218 772.472534,512.939331 779.500610,506.105286   C787.501160,498.325714 789.366882,487.856415 793.429871,478.319702   C794.914062,474.836151 794.978638,469.797272 800.976196,471.236725   C805.005310,472.203796 805.963440,475.230103 804.463928,482.665100   C809.645935,478.137695 814.667358,474.345581 821.011719,472.626770   C831.307129,469.837524 841.396240,477.110779 841.237488,487.831207   C841.078064,498.594635 836.030518,507.519135 829.981934,516.097473   C821.108154,528.682617 808.535583,533.881042 793.810608,535.270386   C790.788879,535.555481 788.528076,533.460144 785.766113,533.011780   C783.808411,534.436646 783.345642,536.665283 782.682800,538.649353   C776.055847,558.485657 768.650635,578.094238 765.052490,598.826355   C764.499329,602.013733 764.071289,605.816833 759.044617,604.675598   C755.350342,603.836731 753.367432,600.558350 754.259216,596.184692   C757.619873,579.702454 763.093689,563.831238 768.441772,547.931885   C771.288696,539.468262 774.382568,531.087708 777.633545,521.911804   C771.021423,527.612061 766.147888,534.107544 758.674622,537.416443   C748.215515,542.047424 739.947754,538.614319 735.935547,527.914490   C733.993225,522.734741 733.388428,517.278748 732.697632,511.856049   C732.014038,506.489746 731.259338,506.290314 726.065247,506.734802   C720.900574,507.176819 718.753540,509.603851 717.243408,514.327515   C714.669373,522.379333 709.812378,529.168701 703.302673,534.659180   C695.958374,540.853516 685.380249,539.029358 680.511780,530.758789   C679.848755,529.632568 679.287720,528.446350 678.276306,526.520020   C671.504822,534.053589 664.571655,541.868103 653.733643,535.044922   C646.230103,530.320984 645.820129,522.595215 647.476135,514.081238   C640.637634,521.281860 634.765991,528.746765 626.894592,534.087646   C623.143555,536.632812 619.108521,538.853638 614.379272,537.937439   C606.373840,536.386414 602.753662,529.947998 604.892090,519.527161   C608.061218,504.083099 614.750122,490.203522 625.988403,478.917969   C635.060059,469.808136 642.607605,468.553680 654.344177,473.733795   C657.969177,475.333771 658.740234,472.799652 659.663025,470.493134   C666.274963,453.966919 672.810303,437.410065 679.425598,420.885223   C681.280029,416.252899 683.190369,411.633759 685.314026,407.121002   C687.296265,402.908752 691.329956,401.232178 694.641479,403.176331   C698.559753,405.476654 697.332275,408.685883 695.864258,411.890442   C685.398071,434.738342 675.791626,457.957306 667.004883,481.488190   C662.247559,494.228271 658.317017,507.327606 658.343018,521.198914   C658.348083,523.889343 658.037781,526.848999 661.186646,528.011475   C664.088745,529.082886 665.826599,526.614807 667.493530,524.942322   C672.697083,519.721313 677.194153,513.989685 679.457458,506.780090   C680.202026,504.408356 681.298706,502.147186 682.394775,499.490479  M824.518005,504.967377   C826.849426,500.884491 828.273132,496.460999 829.323730,491.912506   C830.030457,488.853027 829.952759,485.786530 827.346191,483.638824   C824.914185,481.634949 822.489197,483.467072 820.411743,484.578705   C807.840515,491.305450 799.054199,501.825073 792.009216,513.891663   C790.374084,516.692322 787.691162,519.972961 790.829285,523.443054   C794.029480,526.981628 798.063843,526.139465 801.963806,524.888611   C803.689148,524.335205 805.367310,523.523987 806.932739,522.602173   C814.089783,518.387573 819.958862,512.842224 824.518005,504.967377  M644.972107,498.588196   C647.885010,494.196381 650.884277,489.852814 653.010254,485.040375   C646.848450,481.265991 641.905396,481.338837 637.045593,485.112579   C626.168030,493.559204 619.048523,504.561584 615.141602,517.681030   C614.197388,520.851746 612.879883,524.716309 616.121582,526.914673   C619.477661,529.190552 622.444885,526.118347 624.948547,524.128784   C633.433716,517.385803 639.002319,508.272095 644.972107,498.588196  M698.091675,497.689545   C697.176331,495.267059 696.140686,496.026184 695.151428,497.611053   C690.566711,504.956268 688.190674,513.019348 688.355286,521.622864   C688.448486,526.495239 693.065308,528.559204 697.275146,525.953308   C703.218018,522.274536 706.177795,516.358948 708.698486,510.161621   C709.649353,507.823669 708.562012,506.469391 706.579773,505.362274   C703.375977,503.572937 700.389832,501.490723 698.091675,497.689545  M754.712341,458.115295   C754.220093,459.704620 753.635498,461.272675 753.263306,462.889648   C752.936462,464.309753 751.970642,465.737915 752.932068,468.263306   C762.950623,449.394745 771.854858,431.083344 777.530518,411.369781   C767.061768,425.290466 761.177673,441.408173 754.712341,458.115295  M711.543152,490.018982   C710.767456,488.381775 711.273071,485.854095 708.529968,485.550995   C704.962585,490.573853 705.614624,493.625458 710.745789,495.936005   C712.262512,494.427979 711.419983,492.511688 711.543152,490.018982  z"/>
<path fill="#000000" opacity="1.000000" stroke="none" d=" M353.666443,527.312988   C353.151520,525.757996 352.708191,524.549255 352.181519,523.113281   C348.824402,525.734314 345.614868,528.059937 342.605438,530.620789   C329.734314,541.573486 318.862396,529.502502 317.743469,518.907532   C317.003632,511.901520 319.123505,505.434784 321.422150,498.983368   C322.172943,496.876129 323.586365,494.926056 323.493896,492.044556   C318.954803,494.155334 315.536194,497.029999 312.662018,500.415039   C304.043365,510.565491 295.478210,520.772095 289.152802,532.610840   C287.444672,535.807800 285.196411,538.010132 281.127625,536.298584   C276.972473,534.550659 276.657440,531.381348 277.740723,527.630432   C278.291199,525.724304 278.852722,523.821411 279.645691,521.108154   C275.107147,524.918762 271.499115,528.680054 267.105347,531.442566   C259.616577,536.150940 251.370728,535.273254 247.548828,529.167175   C244.477371,524.260132 245.156143,518.878662 246.542374,513.691467   C248.134140,507.735229 250.711151,502.115051 253.444092,496.585876   C254.594803,494.257843 255.865585,491.965607 256.247742,488.884521   C251.359055,490.203888 247.724564,492.960083 244.834961,496.242950   C235.506882,506.840393 225.497482,516.917236 218.371109,529.296875   C216.897247,531.857300 215.457672,534.469116 212.176102,535.430908   C207.067459,536.928040 205.283676,535.601746 205.786362,530.248413   C205.862289,529.439880 206.118149,528.648193 206.379974,527.435730   C200.891220,530.030579 197.130310,534.680115 191.704193,536.775574   C186.239182,538.886047 180.960648,539.569031 176.177933,535.596008   C171.386200,531.615540 170.983765,526.233826 172.223969,520.535034   C172.356400,519.926453 172.385422,519.295288 172.615051,517.444214   C168.719345,521.409241 165.495804,524.477173 162.526245,527.773926   C159.705673,530.905273 156.492981,533.523010 152.968353,535.744873   C148.327682,538.670349 143.452850,539.627380 138.346420,536.787170   C133.253189,533.954285 132.527557,528.609375 133.083023,524.112793   C135.542282,504.204468 144.250824,487.740021 161.825333,476.912811   C167.732132,473.273804 174.235123,472.399902 181.030502,473.718170   C190.207260,475.498413 194.607254,483.321991 191.458344,491.983948   C188.798386,499.300873 184.833282,506.142700 183.775955,514.059998   C183.419281,516.730652 183.377594,519.361694 183.372696,522.009949   C183.360550,528.585693 185.607178,530.203674 191.130829,526.466309   C203.541519,518.069092 214.863678,508.582336 217.651016,492.490814   C218.413757,488.087555 219.577164,483.739288 221.598846,479.672852   C223.014679,476.825012 224.967957,474.939056 228.294098,476.092957   C231.780380,477.302460 233.329361,479.953735 232.246887,483.583069   C230.549301,489.274902 228.625412,494.899292 226.372009,501.867523   C232.986343,495.297821 237.808289,488.748749 244.283371,483.857513   C248.928131,480.348816 253.896118,477.847748 259.753448,477.712463   C265.699615,477.575073 268.720428,481.563538 267.577606,487.456512   C266.174561,494.691467 263.207184,501.394989 260.698151,508.256104   C259.498444,511.536713 258.248230,514.799377 257.086182,518.093140   C256.422119,519.975342 255.524857,522.099426 257.388275,523.662659   C259.513885,525.445679 261.584137,523.799561 263.271759,522.667358   C267.829468,519.609497 271.883789,515.984192 275.814087,512.080261   C284.200745,503.749756 290.149780,494.357574 291.935852,482.512970   C292.300171,480.096893 293.738953,478.232544 296.433105,477.784943   C298.778564,477.395294 300.842285,478.119446 302.272919,479.883820   C304.159912,482.211060 303.558014,484.969940 302.686523,487.488861   C301.075684,492.144653 299.235413,496.721039 297.329468,501.756531   C305.958710,495.483124 311.486298,486.689209 319.744263,480.780151   C322.251251,478.986267 324.761993,477.686096 327.942230,477.637207   C335.846344,477.515778 338.769745,481.244781 336.843201,488.985779   C334.712494,497.547302 330.561676,505.469330 328.951324,514.185669   C328.681244,515.647644 328.356689,517.143921 328.406342,518.612549   C328.592743,524.129700 331.781494,526.209167 336.133453,523.068787   C345.173248,516.545654 353.839935,509.620422 357.843536,498.434357   C360.135773,492.029755 362.972046,485.766296 366.927856,480.129974   C369.155792,476.955597 371.725708,474.167419 375.501709,472.762268   C381.548309,470.512146 388.645905,471.333557 391.497040,474.659729   C394.834015,478.552612 395.483887,486.954224 392.673248,492.192535   C389.052216,498.941193 383.602875,504.101440 377.495636,508.512451   C374.412201,510.739441 370.882324,512.353271 367.532898,514.205627   C364.822845,515.704346 361.273376,516.557312 363.119812,521.054688   C365.071228,525.807922 368.947968,528.046570 373.254974,526.684875   C378.234222,525.110596 382.733887,522.557495 386.682953,519.220215   C390.876617,515.676270 394.533264,511.479889 398.823242,508.070190   C408.768250,500.165894 412.125458,489.464569 412.715668,477.406555   C412.909485,473.446106 415.433289,471.718658 419.111053,472.914124   C422.717529,474.086487 425.743744,480.314148 424.349823,483.925812   C422.871033,487.757324 421.246857,491.532745 419.143616,496.653625   C425.851135,489.423828 430.991211,482.705536 437.129211,476.898621   C442.594635,471.727997 447.632080,471.699005 452.725769,477.023804   C456.467804,480.935638 456.086090,485.128571 451.649933,488.840302   C446.559937,484.155243 444.907288,484.227753 439.474152,489.534210   C427.148865,501.572052 416.052551,514.541870 408.651154,530.307434   C406.872101,534.096924 403.665466,535.455139 400.004791,533.912109   C396.334930,532.365112 397.604218,528.937744 398.315033,526.061401   C398.752350,524.291687 399.450745,522.586487 400.467896,519.551575   C394.357361,526.319153 387.934631,530.710815 380.860596,534.177002   C376.302032,536.410645 371.598999,537.796265 366.432709,537.349915   C360.104889,536.803223 356.006775,533.460571 353.666443,527.312988  M160.352417,490.832977   C158.427872,493.104248 156.327789,495.250946 154.611404,497.669891   C149.323074,505.122955 144.206131,512.677673 142.979050,522.098206   C142.721527,524.075256 142.947510,525.872070 144.536743,527.008240   C146.256958,528.238037 147.624054,526.586060 149.003647,525.827454   C150.011703,525.273193 150.916046,524.507202 151.804443,523.761597   C164.986572,512.697144 172.776062,497.479797 183.435455,483.684814   C174.147873,482.082336 166.917694,484.314789 160.352417,490.832977  M370.476654,495.855042   C369.903748,497.805206 368.509644,499.574432 368.980438,502.803375   C375.384125,497.705200 381.781647,493.763641 383.700958,485.794281   C384.023468,484.455078 385.156586,482.801300 383.216125,481.815613   C381.651459,481.020782 380.263733,482.065643 379.111816,482.937042   C374.972839,486.068085 372.893036,490.648438 370.476654,495.855042  z"/>
<path fill="#000000" opacity="1.000000" stroke="none" d=" M858.281494,503.277832   C867.677368,493.174011 875.867981,482.310760 887.570007,475.126343   C891.858276,472.493591 895.976685,468.331787 901.523865,472.432281   C905.263977,475.196960 906.497437,482.461182 904.625305,488.682373   C902.473328,495.833344 898.901611,502.541626 897.810303,510.010773   C897.263672,513.752014 896.559875,517.526794 897.269836,521.340454   C898.117737,525.895569 900.532532,527.070862 904.182617,524.145813   C912.022339,517.863464 919.210388,510.960693 922.630066,501.075958   C924.923645,494.446289 927.944580,488.129974 931.635559,482.179443   C935.503174,475.944153 940.645935,471.590851 948.567139,471.638702   C958.320862,471.697601 963.570801,478.539917 960.706238,487.971008   C958.106445,496.530182 951.734741,502.234467 944.907288,507.357941   C941.202209,510.138367 937.136902,512.506897 933.020569,514.651184   C929.317627,516.580078 928.696289,519.488403 929.528015,523.007019   C930.334656,526.419678 932.921936,527.747498 936.230347,527.886169   C944.478333,528.231995 950.874817,523.889771 956.969360,519.247253   C963.342712,514.392456 968.490173,508.190369 974.067505,502.467010   C975.363403,501.137146 976.706787,498.837616 979.024597,500.368103   C981.289185,501.863464 981.227722,504.175598 980.270508,506.615570   C974.810608,520.533569 950.514038,538.003357 936.046143,538.345642   C926.479248,538.572021 922.491455,535.859131 919.190491,526.922729   C918.919922,526.190308 918.468567,525.524536 918.043823,524.718872   C915.338623,525.971680 913.396423,527.747498 911.487183,529.568420   C909.171631,531.776611 906.587158,533.531677 903.515930,534.554871   C895.088257,537.362366 888.130676,532.952393 886.665894,524.232300   C885.314636,516.188904 886.561279,508.459045 888.405579,500.692169   C889.820251,494.734589 892.928711,489.285919 893.868103,482.519104   C888.251770,485.871735 884.219971,490.298370 879.976990,494.305054   C867.611023,505.982269 855.728943,518.122375 850.139526,534.853760   C849.063416,538.074890 846.670654,539.653442 843.179199,539.220825   C839.515015,538.766724 838.261536,536.083679 837.770142,532.970093   C837.159302,529.099426 838.421814,525.408081 839.191711,521.665955   C845.504822,490.980438 857.901306,462.453094 870.235596,433.899872   C875.117310,422.598969 879.873962,411.243469 884.833008,399.976837   C886.745911,395.630768 889.816650,394.412384 893.528931,396.246399   C897.527039,398.221588 897.610657,401.256378 895.976196,405.039185   C887.462341,424.743805 878.515442,444.242249 869.176147,463.572357   C863.106079,476.135834 857.263611,488.848572 853.955505,502.513306   C853.490417,504.434540 853.342102,506.432495 852.909485,509.311340   C854.982727,506.980042 856.513977,505.258270 858.281494,503.277832  M941.607544,497.125946   C944.602966,494.238098 947.667969,491.384216 949.500793,487.565826   C950.336060,485.825775 951.692810,483.711182 949.702515,482.097656   C947.667603,480.447968 945.949951,482.237000 944.511536,483.554413   C939.128357,488.484833 936.219543,494.886383 933.364258,502.210114   C936.826538,501.128204 938.915527,499.275269 941.607544,497.125946  z"/>
<path fill="#000000" opacity="1.000000" stroke="none" d=" M533.832886,476.896606   C552.371216,445.863251 570.697205,415.125214 589.102966,384.434998   C591.121704,381.069000 592.661255,377.314819 596.505859,375.256348   C600.284607,373.233124 603.851196,373.063934 607.262634,375.631409   C610.485962,378.057343 611.215332,381.536957 610.712219,385.397614   C607.768982,407.982635 601.473511,429.924805 597.883850,452.386688   C596.795837,459.194702 595.530029,465.974304 594.222168,473.475311   C598.412415,472.851440 601.801025,472.372772 605.180481,471.836578   C608.693787,471.279144 610.852966,473.100403 612.489258,475.889282   C614.008972,478.479523 612.906555,480.576630 611.427490,482.785126   C610.053284,484.837006 608.448730,485.094452 606.283936,484.418152   C604.714050,483.927704 603.057434,483.437164 601.437683,483.431213   C593.599487,483.402283 591.447998,485.537537 590.287659,493.433105   C587.635986,511.477325 584.809570,529.500610 583.476624,547.704163   C582.990051,554.347839 583.183777,561.022583 584.171265,567.631409   C584.787842,571.757812 583.577698,574.572754 579.139160,575.185791   C575.699341,575.661011 572.890808,572.956909 572.751648,568.491516   C572.310364,554.332153 572.676575,540.205383 575.028259,526.179443   C576.976135,514.562073 578.777893,502.919769 580.579346,491.278442   C581.267090,486.834259 578.181641,486.769928 575.209778,487.107666   C563.949280,488.387268 553.006958,491.209015 542.012085,493.862579   C535.580139,495.414886 531.265381,498.417755 528.234070,504.579041   C521.187805,518.900696 514.437622,533.399780 506.230194,547.123535   C504.927643,549.301575 503.976013,552.288879 500.664917,552.196716   C498.070557,552.124573 496.568085,550.186279 495.342682,548.138489   C493.945465,545.803589 494.990265,543.560791 495.929718,541.461670   C499.822510,532.763672 505.682098,525.208679 510.335419,516.947327   C513.102966,512.033997 516.005310,507.196503 519.242676,501.646729   C517.316467,502.351349 516.153748,502.877289 514.937256,503.200531   C512.497498,503.848785 509.656281,505.759735 508.116058,502.023376   C506.628052,498.413696 507.019165,495.030121 510.862122,493.050385   C513.511475,491.685547 516.267090,490.283173 519.141113,489.646301   C526.297852,488.060394 530.552185,483.379822 533.832886,476.896606  M597.884949,391.661102   C594.698975,394.200073 592.717529,397.719391 590.569641,401.036469   C576.464539,422.819519 564.060547,445.627441 550.543457,467.767365   C547.803284,472.255554 545.426392,476.965515 542.399353,482.447205   C555.180481,480.240326 566.914307,478.203339 578.653015,476.194611   C581.829163,475.651093 583.331116,473.986328 583.936584,470.641571   C587.010315,453.662781 590.473999,436.754791 593.572083,419.780151   C595.281250,410.415283 598.136902,401.236938 597.884949,391.661102  z"/>
<path fill="#000000" opacity="1.000000" stroke="none" d=" M129.263901,401.015381   C134.479721,399.878571 139.480621,399.574493 142.717041,394.783508   C143.982742,392.909882 147.274765,391.532288 148.984283,393.059723   C154.238113,397.753967 159.908981,395.131226 165.164093,394.356415   C180.959106,392.027527 196.828949,390.436066 212.670486,388.553436   C218.255600,387.889709 223.696411,386.185181 229.437622,386.624054   C234.068497,386.978088 236.461090,389.131287 236.294571,393.334106   C236.118637,397.774017 233.119049,398.784515 229.434708,398.752869   C213.774796,398.618347 198.291794,400.718414 182.811081,402.622772   C173.278091,403.795441 163.863159,405.918915 154.333878,407.134857   C150.283722,407.651642 148.049927,409.627930 146.411896,412.975128   C140.475342,425.105988 135.843704,437.764984 131.593491,450.544647   C122.830948,476.892242 114.226959,503.293976 105.786888,529.746521   C102.957993,538.612854 101.839264,547.905212 100.534203,557.100098   C99.925758,561.386963 98.587181,564.226196 93.693451,563.417603   C89.659149,562.750977 87.786476,559.483704 88.912117,554.561035   C91.242813,544.368591 93.440605,534.145691 96.546722,524.136108   C107.635139,488.403503 119.262398,452.846405 131.057846,417.342896   C131.575714,415.784149 131.932144,414.171753 132.627548,411.614227   C124.475571,413.211090 116.921288,414.607849 109.403671,416.179962   C90.961075,420.036713 73.027206,425.550812 55.766869,433.136200   C52.235516,434.688141 49.128998,434.717346 47.097595,431.233917   C45.002842,427.641907 47.106712,423.608551 51.469780,421.737061   C68.066864,414.617798 85.639236,410.847015 103.100136,406.719727   C111.649918,404.698792 120.275002,402.996399 129.263901,401.015381  z"/>
</svg>